<svg xmlns="http://www.w3.org/2000/svg" width="154.118" height="44.802" viewBox="0 0 154.118 44.802">
    <defs>
        <style>
            .cls-1{fill:#fff}
        </style>
    </defs>
    <g id="logo-rio">
        <g id="Grupo_256" data-name="Grupo 256" transform="translate(63.864 7.707)">
            <g id="Grupo_255" data-name="Grupo 255" transform="translate(27.833)">
                <g id="Grupo_251" data-name="Grupo 251">
                    <path id="Trazado_633" d="M350.282 57.561c-3.186 0-7.163-.953-9.5-3.186a11.8 11.8 0 0 1-3.377-8.633V29.4h8.5v16.341a5.4 5.4 0 0 0 1.552 4.194 4.766 4.766 0 0 0 4.548.626c2.206-.817 2.669-3.159 2.669-5.256V29.4h8.851v16.368a11.974 11.974 0 0 1-3.268 8.5c-2.35 2.285-6.757 3.293-9.975 3.293z" class="cls-1" data-name="Trazado 633" transform="translate(-337.4 -29.128)"/>
                    <path id="Trazado_634" d="M452.883 56.86a19.428 19.428 0 0 1-12.146-4.14l-.136-.109 2.669-3.486a2.811 2.811 0 0 1 2.369-1.117 5.332 5.332 0 0 1 2.4.626 10.878 10.878 0 0 0 4.793 1.525h.218c1.906 0 2.941-.572 3.05-1.689.191-1.607-1.8-2.1-3.241-2.424l-.763-.191c-3.35-.79-7.163-1.689-8.987-4.793a7.714 7.714 0 0 1 1.525-9.45c2.832-2.642 6.727-3.214 9.5-3.214.3 0 .626 0 .926.027a17.259 17.259 0 0 1 9.94 3.4l.136.109-2.26 3.486a3.017 3.017 0 0 1-2.506 1.307 5.672 5.672 0 0 1-2.206-.545 10.333 10.333 0 0 0-4.14-1.062 6.637 6.637 0 0 0-.735.027 2.8 2.8 0 0 0-1.688.654 1.417 1.417 0 0 0-.381 1.008.809.809 0 0 0 .272.626 9.19 9.19 0 0 0 3.786 1.471c.436.109.844.191 1.226.3 3.813 1.035 7.462 2.506 8.47 6.046a8.726 8.726 0 0 1-3.486 9.26 15.437 15.437 0 0 1-8.605 2.348z" class="cls-1" data-name="Trazado 634" transform="translate(-412.494 -28.4)"/>
                </g>
                <g id="Grupo_254" data-name="Grupo 254" transform="translate(55.394 .272)">
                    <path id="Trazado_635" d="M544.286 29.4a3.541 3.541 0 1 0 3.54 3.541 3.551 3.551 0 0 0-3.54-3.541zm0 6.509a3 3 0 1 1 3-3 2.994 2.994 0 0 1-3 3z" class="cls-1" data-name="Trazado 635" transform="translate(-540.8 -29.4)"/>
                    <g id="Grupo_253" data-name="Grupo 253" transform="translate(1.934 1.716)">
                        <g id="Grupo_252" data-name="Grupo 252">
                            <path id="Trazado_636" d="M547.9 35.7h1.716a1.512 1.512 0 0 1 1.089.381 1.128 1.128 0 0 1 .327.844 1.239 1.239 0 0 1-.218.735 1.111 1.111 0 0 1-.572.409l.9 1.334h-.953l-.79-1.2h-.654v1.2h-.817V35.7zm1.634 1.8a.779.779 0 0 0 .463-.136.5.5 0 0 0 .163-.381.554.554 0 0 0-.163-.409.779.779 0 0 0-.463-.136h-.817V37.5z" class="cls-1" data-name="Trazado 636" transform="translate(-547.9 -35.7)"/>
                        </g>
                    </g>
                </g>
            </g>
            <path id="Trazado_637" d="M255.081 46.612a8.676 8.676 0 0 0 4.494-7.98v-.082a8.809 8.809 0 0 0-2.478-6.482 9.638 9.638 0 0 0-3.597-2.178 15.99 15.99 0 0 0-5.338-.79H235.2v27.371h8.225v-8.034h2.587c.327 0 .626 0 .926-.027v.027s2.288 3.4 3.894 5.883c1.389 2.124 4.249 2.124 6.237 2.124h4.712s-4.875-7.136-6.7-9.832zm-11.629-4.793V36.29h4.412a4.469 4.469 0 0 1 2.642.708 2.356 2.356 0 0 1 .9 2.043v.082a2.464 2.464 0 0 1-.872 1.961 4.1 4.1 0 0 1-2.614.763h-4.466z" class="cls-1" data-name="Trazado 637" transform="translate(-235.2 -28.909)"/>
        </g>
        <g id="Grupo_258" data-name="Grupo 258" transform="translate(64.191 40.525)">
            <g id="Grupo_257" data-name="Grupo 257">
                <path id="Trazado_638" d="M236.4 149h1.8a1.788 1.788 0 0 1 .681.109 1.482 1.482 0 0 1 .49.3 1.037 1.037 0 0 1 .245.354 1.272 1.272 0 0 1 .082.463 1.272 1.272 0 0 1-.082.463 1.2 1.2 0 0 1-.6.6 2.3 2.3 0 0 1-.463.136l1.28 1.689h-.572l-1.2-1.607h-1.2v1.607h-.461zm1.743 2.124a2.118 2.118 0 0 0 .436-.054.918.918 0 0 0 .327-.163 1.066 1.066 0 0 0 .218-.272.754.754 0 0 0 .082-.354.7.7 0 0 0-.272-.6 1.3 1.3 0 0 0-.79-.218h-1.28v1.689h1.28z" class="cls-1" data-name="Trazado 638" transform="translate(-236.4 -148.973)"/>
                <path id="Trazado_639" d="M253.5 149h.463v4.167h-.463z" class="cls-1" data-name="Trazado 639" transform="translate(-248.843 -148.973)"/>
                <path id="Trazado_640" d="M262.151 153.249a2.258 2.258 0 0 1-.871-.163 2.011 2.011 0 0 1-.681-.463 2.236 2.236 0 0 1-.436-.681 2.185 2.185 0 0 1-.163-.817 2.084 2.084 0 0 1 .163-.817 1.95 1.95 0 0 1 .436-.681 2.011 2.011 0 0 1 .681-.463 2.406 2.406 0 0 1 1.743 0 2.011 2.011 0 0 1 .681.463 2.236 2.236 0 0 1 .436.681 2.185 2.185 0 0 1 .163.817 2.084 2.084 0 0 1-.163.817 1.95 1.95 0 0 1-.436.681 2.011 2.011 0 0 1-.681.463 2.359 2.359 0 0 1-.872.163zm0-.436a1.645 1.645 0 0 0 .654-.136 1.745 1.745 0 0 0 .517-.354 1.74 1.74 0 0 0 .436-1.2 1.88 1.88 0 0 0-.109-.681 1.451 1.451 0 0 0-.354-.545 1.822 1.822 0 0 0-.517-.381 1.637 1.637 0 0 0-1.307 0 1.744 1.744 0 0 0-.517.354 1.739 1.739 0 0 0-.436 1.2 1.881 1.881 0 0 0 .109.681 1.452 1.452 0 0 0 .354.545 1.822 1.822 0 0 0 .517.381 1.645 1.645 0 0 0 .653.136z" class="cls-1" data-name="Trazado 640" transform="translate(-253.573 -148.973)"/>
                <path id="Trazado_641" d="M289.543 153.249a2.031 2.031 0 0 1-.708-.109 1.451 1.451 0 0 1-.545-.354 1.555 1.555 0 0 1-.354-.572 2.277 2.277 0 0 1-.136-.79V149h.463v2.4a1.475 1.475 0 0 0 .327 1.035 1.192 1.192 0 0 0 .926.354 1.231 1.231 0 0 0 .926-.354 1.357 1.357 0 0 0 .327-1.035V149h.463v2.4a2.277 2.277 0 0 1-.136.79 1.361 1.361 0 0 1-.354.572 1.452 1.452 0 0 1-.545.354 1.548 1.548 0 0 1-.654.133z" class="cls-1" data-name="Trazado 641" transform="translate(-273.802 -148.973)"/>
                <path id="Trazado_642" d="M305.7 149h1.8a1.788 1.788 0 0 1 .681.109 1.482 1.482 0 0 1 .49.3 1.036 1.036 0 0 1 .245.354 1.272 1.272 0 0 1 .082.463 1.272 1.272 0 0 1-.082.463 1.2 1.2 0 0 1-.6.6 2.3 2.3 0 0 1-.463.136l1.28 1.689h-.572l-1.2-1.607h-1.2v1.607h-.461zm1.743 2.124a2.118 2.118 0 0 0 .436-.054.918.918 0 0 0 .327-.163 1.067 1.067 0 0 0 .218-.272.754.754 0 0 0 .082-.354.7.7 0 0 0-.272-.6 1.3 1.3 0 0 0-.79-.218h-1.28v1.689h1.28z" class="cls-1" data-name="Trazado 642" transform="translate(-286.827 -148.973)"/>
                <path id="Trazado_643" d="M324.043 153.249a2.031 2.031 0 0 1-.708-.109 1.451 1.451 0 0 1-.545-.354 1.555 1.555 0 0 1-.354-.572 2.278 2.278 0 0 1-.136-.79V149h.463v2.4a1.475 1.475 0 0 0 .327 1.035 1.192 1.192 0 0 0 .926.354 1.231 1.231 0 0 0 .926-.354 1.357 1.357 0 0 0 .327-1.035V149h.463v2.4a2.277 2.277 0 0 1-.136.79 1.361 1.361 0 0 1-.354.572 1.451 1.451 0 0 1-.545.354 1.645 1.645 0 0 1-.654.133z" class="cls-1" data-name="Trazado 643" transform="translate(-298.906 -148.973)"/>
                <path id="Trazado_644" d="M341.8 153.176a2.163 2.163 0 0 1-.871-.163 1.671 1.671 0 0 1-.654-.463 1.95 1.95 0 0 1-.436-.681 2.2 2.2 0 0 1-.136-.844 2.186 2.186 0 0 1 .163-.817 1.95 1.95 0 0 1 .436-.681 2.2 2.2 0 0 1 .654-.463 2.122 2.122 0 0 1 .844-.163 2.959 2.959 0 0 1 .49.027 2.27 2.27 0 0 1 .409.109c.136.054.245.109.354.163a2.558 2.558 0 0 1 .327.245l-.3.354a1.5 1.5 0 0 0-.245-.191 1.272 1.272 0 0 0-.272-.136 1.535 1.535 0 0 0-.327-.109 1.8 1.8 0 0 0-.409-.027 1.615 1.615 0 0 0-.626.136 1.331 1.331 0 0 0-.49.381 1.812 1.812 0 0 0-.327.545 1.83 1.83 0 0 0-.109.654 1.788 1.788 0 0 0 .109.681 1.812 1.812 0 0 0 .327.545 1.352 1.352 0 0 0 .517.354 1.784 1.784 0 0 0 .681.136 1.88 1.88 0 0 0 .681-.109 1.85 1.85 0 0 0 .517-.3v-1.035h-1.28v-.436h1.716v1.661a2.6 2.6 0 0 1-.708.436 3.044 3.044 0 0 1-1.035.191z" class="cls-1" data-name="Trazado 644" transform="translate(-311.567 -148.9)"/>
                <path id="Trazado_645" d="M359.943 153.249a2.03 2.03 0 0 1-.708-.109 1.451 1.451 0 0 1-.545-.354 1.555 1.555 0 0 1-.354-.572 2.277 2.277 0 0 1-.136-.79V149h.463v2.4a1.475 1.475 0 0 0 .327 1.035 1.192 1.192 0 0 0 .926.354 1.231 1.231 0 0 0 .926-.354 1.358 1.358 0 0 0 .327-1.035V149h.463v2.4a2.278 2.278 0 0 1-.136.79 1.361 1.361 0 0 1-.354.572 1.786 1.786 0 0 1-1.2.49z" class="cls-1" data-name="Trazado 645" transform="translate(-325.029 -148.973)"/>
                <path id="Trazado_646" d="M376.706 148.9h.436l1.906 4.194h-.517l-.49-1.089h-2.26l-.49 1.089h-.49zm1.171 2.669l-.953-2.124-.953 2.124z" class="cls-1" data-name="Trazado 646" transform="translate(-337.108 -148.9)"/>
                <path id="Trazado_647" d="M394.643 151.606L392.9 149.1h.572l1.389 2.07 1.416-2.07h.545l-1.743 2.506v1.661h-.463v-1.661z" class="cls-1" data-name="Trazado 647" transform="translate(-350.279 -149.046)"/>
                <path id="Trazado_648" d="M418.216 153.149a2.652 2.652 0 0 1-.926-.163 2.4 2.4 0 0 1-.79-.49l.3-.354a2.279 2.279 0 0 0 .654.436 1.732 1.732 0 0 0 .763.136 1.063 1.063 0 0 0 .681-.191.632.632 0 0 0 .245-.517.649.649 0 0 0-.055-.245.571.571 0 0 0-.163-.218 1.813 1.813 0 0 0-.327-.163 2.26 2.26 0 0 0-.545-.136 3.409 3.409 0 0 1-.626-.191 1.136 1.136 0 0 1-.436-.245.939.939 0 0 1-.245-.327 1.128 1.128 0 0 1-.082-.436.9.9 0 0 1 .109-.463 1.124 1.124 0 0 1 .272-.354 1.381 1.381 0 0 1 .436-.245 1.756 1.756 0 0 1 .545-.082 2.277 2.277 0 0 1 .79.136 2.713 2.713 0 0 1 .654.381l-.272.354a1.932 1.932 0 0 0-.6-.354 1.6 1.6 0 0 0-.626-.109.984.984 0 0 0-.654.191.619.619 0 0 0-.245.49.806.806 0 0 0 .054.272.571.571 0 0 0 .163.218 1.372 1.372 0 0 0 .354.191 3.873 3.873 0 0 0 .572.163 2.458 2.458 0 0 1 1.035.436.95.95 0 0 1 .327.763 1 1 0 0 1-.109.49 1.325 1.325 0 0 1-.3.381 1.381 1.381 0 0 1-.436.245 3.2 3.2 0 0 0-.517 0z" class="cls-1" data-name="Trazado 648" transform="translate(-367.451 -148.9)"/>
                <path id="Trazado_649" d="M432.6 149h3.023v.436h-2.533v1.416h2.26v.436h-2.26v1.471h2.56v.436h-3.05z" class="cls-1" data-name="Trazado 649" transform="translate(-379.167 -148.973)"/>
                <path id="Trazado_650" d="M449.9 153.176a2.163 2.163 0 0 1-.872-.163 1.672 1.672 0 0 1-.654-.463 1.951 1.951 0 0 1-.436-.681 2.2 2.2 0 0 1-.136-.844 2.185 2.185 0 0 1 .163-.817 1.949 1.949 0 0 1 .436-.681 2.2 2.2 0 0 1 .654-.463 2.122 2.122 0 0 1 .844-.163 2.96 2.96 0 0 1 .49.027 2.273 2.273 0 0 1 .409.109c.136.054.245.109.354.163a2.556 2.556 0 0 1 .327.245l-.3.354a1.5 1.5 0 0 0-.245-.191 1.271 1.271 0 0 0-.272-.136 1.534 1.534 0 0 0-.327-.109 1.8 1.8 0 0 0-.409-.027 1.615 1.615 0 0 0-.626.136 1.331 1.331 0 0 0-.49.381 1.813 1.813 0 0 0-.327.545 1.832 1.832 0 0 0-.109.654 1.789 1.789 0 0 0 .109.681 1.814 1.814 0 0 0 .327.545 1.352 1.352 0 0 0 .517.354 1.784 1.784 0 0 0 .681.136 1.88 1.88 0 0 0 .681-.109 1.848 1.848 0 0 0 .517-.3v-1.035h-1.28v-.436h1.716v1.661a2.6 2.6 0 0 1-.708.436 3.044 3.044 0 0 1-1.034.191z" class="cls-1" data-name="Trazado 650" transform="translate(-390.227 -148.9)"/>
                <path id="Trazado_651" d="M468.043 153.249a2.031 2.031 0 0 1-.708-.109 1.451 1.451 0 0 1-.545-.354 1.555 1.555 0 0 1-.354-.572 2.277 2.277 0 0 1-.136-.79V149h.463v2.4a1.474 1.474 0 0 0 .327 1.035 1.192 1.192 0 0 0 .926.354 1.231 1.231 0 0 0 .926-.354 1.357 1.357 0 0 0 .327-1.035V149h.463v2.4a2.277 2.277 0 0 1-.136.79 1.361 1.361 0 0 1-.354.572 1.451 1.451 0 0 1-.545.354 1.645 1.645 0 0 1-.654.133z" class="cls-1" data-name="Trazado 651" transform="translate(-403.689 -148.973)"/>
                <path id="Trazado_652" d="M484.3 149h1.8a1.788 1.788 0 0 1 .681.109 1.482 1.482 0 0 1 .49.3 1.037 1.037 0 0 1 .245.354 1.273 1.273 0 0 1 .082.463 1.273 1.273 0 0 1-.082.463 1.2 1.2 0 0 1-.6.6 2.3 2.3 0 0 1-.463.136l1.28 1.689h-.572l-1.2-1.607h-1.2v1.607h-.461zm1.743 2.124a2.118 2.118 0 0 0 .436-.054.917.917 0 0 0 .327-.163 1.064 1.064 0 0 0 .218-.272.753.753 0 0 0 .082-.354.7.7 0 0 0-.272-.6 1.3 1.3 0 0 0-.79-.218h-1.28v1.689h1.28z" class="cls-1" data-name="Trazado 652" transform="translate(-416.787 -148.973)"/>
                <path id="Trazado_653" d="M502.451 153.249a2.258 2.258 0 0 1-.871-.163 2.011 2.011 0 0 1-.681-.463 2.236 2.236 0 0 1-.436-.681 2.185 2.185 0 0 1-.163-.817 2.084 2.084 0 0 1 .163-.817 1.95 1.95 0 0 1 .436-.681 2.011 2.011 0 0 1 .681-.463 2.406 2.406 0 0 1 1.743 0 2.012 2.012 0 0 1 .681.463 2.236 2.236 0 0 1 .436.681 2.186 2.186 0 0 1 .163.817 2.085 2.085 0 0 1-.163.817 1.951 1.951 0 0 1-.436.681 2.012 2.012 0 0 1-.681.463 2.163 2.163 0 0 1-.872.163zm.027-.436a1.645 1.645 0 0 0 .654-.136 1.743 1.743 0 0 0 .517-.354 1.739 1.739 0 0 0 .436-1.2 1.881 1.881 0 0 0-.109-.681 1.452 1.452 0 0 0-.354-.545 1.822 1.822 0 0 0-.517-.381 1.637 1.637 0 0 0-1.307 0 1.745 1.745 0 0 0-.517.354 1.739 1.739 0 0 0-.436 1.2 1.88 1.88 0 0 0 .109.681 1.452 1.452 0 0 0 .354.545 1.821 1.821 0 0 0 .517.381 1.645 1.645 0 0 0 .654.136z" class="cls-1" data-name="Trazado 653" transform="translate(-428.429 -148.973)"/>
                <path id="Trazado_654" d="M521.316 153.149a2.652 2.652 0 0 1-.926-.163 2.4 2.4 0 0 1-.79-.49l.3-.354a2.278 2.278 0 0 0 .654.436 1.732 1.732 0 0 0 .763.136 1.063 1.063 0 0 0 .681-.191.632.632 0 0 0 .245-.517.649.649 0 0 0-.055-.245.57.57 0 0 0-.163-.218 1.812 1.812 0 0 0-.327-.163 2.262 2.262 0 0 0-.545-.136 3.411 3.411 0 0 1-.626-.191 1.137 1.137 0 0 1-.436-.245.939.939 0 0 1-.245-.327 1.129 1.129 0 0 1-.082-.436.9.9 0 0 1 .109-.463 1.125 1.125 0 0 1 .272-.354 1.382 1.382 0 0 1 .436-.245 1.756 1.756 0 0 1 .545-.082 2.277 2.277 0 0 1 .79.136 2.713 2.713 0 0 1 .654.381l-.272.354a1.933 1.933 0 0 0-.6-.354 1.6 1.6 0 0 0-.626-.109.984.984 0 0 0-.654.191.619.619 0 0 0-.245.49.8.8 0 0 0 .055.272.571.571 0 0 0 .163.218 1.375 1.375 0 0 0 .354.191 3.873 3.873 0 0 0 .572.163 2.457 2.457 0 0 1 1.035.436.95.95 0 0 1 .327.763 1 1 0 0 1-.109.49 1.326 1.326 0 0 1-.3.381 1.382 1.382 0 0 1-.436.245 3.2 3.2 0 0 0-.518 0z" class="cls-1" data-name="Trazado 654" transform="translate(-442.473 -148.9)"/>
            </g>
        </g>
        <path id="Trazado_655" d="M126.187 7.4A8.419 8.419 0 0 0 123 11.076a5.73 5.73 0 0 0-1.77-2.015c-2.7-1.988-7.626-3.486-10.73-5.774 0 0 .136 4 3.05 6.155 2.587 1.906 5.474 2.26 6.836 3.159a4.993 4.993 0 0 1 1.934 2.424v.027a9.562 9.562 0 0 1 4.412-4.167c3.1-1.28 5.011-1.2 8.552-3.186 4.33-2.451 5.583-7.6 5.583-7.6-4.958 3.896-10.758 4.658-14.68 7.301z" class="cls-1" data-name="Trazado 655" transform="translate(-80.597 -.1)"/>
        <path id="Trazado_656" d="M57.565 49.8c-14.652 10.976-27.806.708-38.209 1.825-4.984.545-7.843 1.988-9.723 5.338-1.906 3.35-2.26 3.84-2.26 3.84a23.3 23.3 0 0 1 9.559-2.342c8.524-.463 16.695 4.249 24.756 4.112-8.279.926-15.986-3.35-27.18-1.661-4.33.626-8.987 2.969-10.894 6.264L.7 72.3c7.762-4.085 15.823-4.33 25.083-1.035 12.446 4.412 17.784 2.887 20.208-1.28 1.661-2.973 7.244-12.585 7.244-12.585z" class="cls-1" data-name="Trazado 656" transform="translate(-.7 -36.264)"/>
    </g>
</svg>
