<svg xmlns="http://www.w3.org/2000/svg" width="156.809" height="34.155" viewBox="0 0 156.809 34.155">
    <defs>
        <style>
            .cls-1{fill:none;stroke:#fff;stroke-width:.3px}.cls-2,.cls-3{fill:#fff}.cls-3{fill-rule:evenodd}
        </style>
    </defs>
    <g id="logo-mercantil_andina" transform="translate(0 .15)">
        <path id="Rectángulo_460" d="M0 0h27.927v27.847H0z" class="cls-1" data-name="Rectángulo 460" transform="translate(.168)"/>
        <path id="Trazado_609" d="M4.508 17.922H2.673v-.332H6.7l4.379 11.062 4.3-11.062h3.963v.332H17.5V31.9h1.836v.334h-5.922V31.9h1.96V18.712h-.042L10.243 31.9h-.188L4.883 18.962h-.042V30.17c0 1.373.189 1.726 1.294 1.726h.836v.334h-4.3v-.33h.543c1.106 0 1.292-.353 1.292-1.726V17.922z" class="cls-2" data-name="Trazado 609" transform="translate(-1.667 -7.016)"/>
        <path id="Trazado_610" d="M31.188 16.585a7.932 7.932 0 0 1 1.729-.873 7.239 7.239 0 0 1 2.92-.625c1.792 0 3.024.666 3.44 1.85a5.387 5.387 0 0 1 .186 1.915l-.06 3.576v.187a2.173 2.173 0 0 0 1 2.183l-1.48 1.707a3 3 0 0 1-1.5-1.289 4.632 4.632 0 0 1-.646.56 3.7 3.7 0 0 1-2.147.583c-2.377 0-3.671-1.2-3.671-3.327 0-2.5 1.731-3.657 5.131-3.657.206 0 .332 0 .625.02v-.437c0-1.185-.229-1.58-1.251-1.58a5.9 5.9 0 0 0-3.086 1.205zm5.483 4.721h-.124c-1.941 0-2.608.354-2.608 1.622a1.266 1.266 0 0 0 1.229 1.394 2.028 2.028 0 0 0 1.46-.73z" class="cls-2" data-name="Trazado 610" transform="translate(-12.949 -6.018)"/>
        <g id="Grupo_261" data-name="Grupo 261" transform="translate(31.068 10.485)">
            <g id="Grupo_259" data-name="Grupo 259">
                <path id="Trazado_611" d="M54.542 17.78h-1.86v-.338h4.078L61.2 28.65l4.352-11.208h4.012v.338H67.7v14.157h1.857v.338h-6v-.338h1.987V18.581h-.043l-5.15 13.356h-.189l-5.241-13.1h-.043v11.351c0 1.392.192 1.749 1.31 1.749h.846v.338h-4.352v-.338h.551c1.118 0 1.309-.357 1.309-1.749z" class="cls-2" data-name="Trazado 611" transform="translate(-52.682 -17.442)"/>
                <path id="Trazado_612" d="M82.305 32.81c-.019 1.5.192 3.183 2.177 3.183a3.341 3.341 0 0 0 3.383-2.908h.335a3.7 3.7 0 0 1-3.72 3.244c-2.47 0-4.2-1.9-4.2-4.676 0-2.043 1.65-4.677 3.952-4.677 2.494 0 3.782 2.78 3.782 3.668a.167.167 0 0 1-.19.188h-5.519zm3.679-2.91c0-1.348-.358-2.591-1.754-2.591-1.479 0-1.925 1.242-1.925 2.591v.59h3.53a.134.134 0 0 0 .148-.15z" class="cls-2" data-name="Trazado 612" transform="translate(-63.689 -21.245)"/>
                <path id="Trazado_613" d="M95.017 27.776h-1.773v-.335h1.773a2.465 2.465 0 0 0 1.775-.465v2.486h.044a2.971 2.971 0 0 1 2.724-2.486 1.286 1.286 0 0 1 1.395 1.241.924.924 0 0 1-.972.99c-.7 0-.93-.356-.93-.926a1.011 1.011 0 0 1 .465-.907.479.479 0 0 0-.3-.062c-.865 0-2.43 1.368-2.43 4.108v4.319h1.924v.338h-5.468v-.338h1.773z" class="cls-2" data-name="Trazado 613" transform="translate(-68.861 -21.245)"/>
                <path id="Trazado_614" d="M113.4 33.106a3.476 3.476 0 0 1-3.55 3.222 4.25 4.25 0 0 1-4.48-4.319 4.88 4.88 0 0 1 4.607-5.032c1.478 0 3.041.65 3.041 1.958A1.023 1.023 0 0 1 112 29.989a.942.942 0 0 1-1.015-.906c0-.843.528-.8.528-1.117 0-.463-.971-.653-1.583-.653-2.051 0-2.536 1.328-2.536 3.33v1.832c0 1.832.084 3.518 2.452 3.518a3.124 3.124 0 0 0 3.21-2.887z" class="cls-2" data-name="Trazado 614" transform="translate(-73.695 -21.245)"/>
                <path id="Trazado_615" d="M127.361 34.94c0 .4.064.927.635.927.486 0 .783-.4 1.1-.842l.232.167a2.006 2.006 0 0 1-1.858 1.136 1.78 1.78 0 0 1-1.863-1.3h-.04a3.457 3.457 0 0 1-3.063 1.3c-1.649 0-2.641-.819-2.641-2.253 0-2.359 3.146-2.949 5.324-2.949h.4v-2.591c0-.992-.929-1.223-1.732-1.223-.613 0-2.049.231-2.049.991 0 .5.7.272.7 1.222a.914.914 0 0 1-.973.885c-.592 0-.929-.465-.929-1.181 0-1.076 1.14-2.254 3.253-2.254 1.606 0 3.506.822 3.506 2.444zm-2.133-3.476c-1.542 0-3.464.043-3.464 2.294 0 1.182.189 2.069 1.541 2.069a2.171 2.171 0 0 0 2.283-1.606v-2.758h-.359z" class="cls-2" data-name="Trazado 615" transform="translate(-79.477 -21.244)"/>
                <path id="Trazado_616" d="M136.789 27.776h-1.669v-.335h1.669c1.015 0 1.394 0 1.776-.465v2.148h.042a3.727 3.727 0 0 1 3.148-2.148c2.26 0 2.894 1.139 2.894 2.381v6.383h1.36v.338h-4.5v-.338h1.36v-6.888c0-1.16-.569-1.539-1.246-1.539-1.774 0-2.684 1.77-3.063 2.485v5.941h1.3v.338h-4.432v-.338h1.359v-7.963z" class="cls-2" data-name="Trazado 616" transform="translate(-85.563 -21.245)"/>
                <path id="Trazado_617" d="M153.333 26.126h-1.838v-.335c2.2.04 3-.887 3.359-2.95h.254v2.95h2.917v.335h-2.917v7.08c0 .863.359 1.137 1.035 1.137a1.85 1.85 0 0 0 1.649-1.326l.317.063a2.313 2.313 0 0 1-2.324 1.6c-1.478 0-2.451-.483-2.451-1.873z" class="cls-2" data-name="Trazado 617" transform="translate(-92.094 -19.595)"/>
                <path id="Trazado_618" d="M164.018 25.362h-1.69v-.336h1.69a2.463 2.463 0 0 0 1.775-.463v8.763h1.69v.338h-4.847v-.338h1.381zm.888-4.436A1.075 1.075 0 1 1 163.829 22a1.082 1.082 0 0 1 1.078-1.075" class="cls-2" data-name="Trazado 618" transform="translate(-96.415 -18.832)"/>
                <path id="Trazado_619" d="M171.7 18.754h-1.69v-.338h1.69a2.224 2.224 0 0 0 1.774-.525v14.224h1.69v.338h-5.154v-.338h1.69z" class="cls-2" data-name="Trazado 619" transform="translate(-99.479 -17.621)"/>
            </g>
            <g id="Grupo_260" data-name="Grupo 260" transform="translate(77.792 1.333)">
                <path id="Trazado_620" d="M182.288 27.56a7.046 7.046 0 0 1 1.519-.766 6.373 6.373 0 0 1 2.56-.548c1.573 0 2.653.586 3.018 1.623a4.637 4.637 0 0 1 .166 1.678l-.055 3.139v.163a1.906 1.906 0 0 0 .878 1.916l-1.3 1.5a2.622 2.622 0 0 1-1.318-1.133 4.029 4.029 0 0 1-.566.494 3.247 3.247 0 0 1-1.882.51c-2.087 0-3.219-1.057-3.219-2.919 0-2.187 1.517-3.209 4.5-3.209.185 0 .293 0 .549.019v-.384c0-1.039-.2-1.385-1.1-1.385a5.173 5.173 0 0 0-2.708 1.059zm4.812 4.14h-.109c-1.7 0-2.288.311-2.288 1.424a1.111 1.111 0 0 0 1.078 1.223 1.779 1.779 0 0 0 1.281-.639z" class="cls-2" data-name="Trazado 620" transform="translate(-182.089 -22.287)"/>
                <path id="Trazado_621" d="M196.6 26.807l2.177-.622a2.4 2.4 0 0 1 .347 1.169 7.852 7.852 0 0 1 1.082-.694 3.836 3.836 0 0 1 1.678-.4 2.33 2.33 0 0 1 2.25 1.351 3.719 3.719 0 0 1 .185 1.33v6.823H201.9v-6.076c0-1.06-.183-1.368-.822-1.368a2.867 2.867 0 0 0-1.7.837v6.6h-2.451v-6.764a6.7 6.7 0 0 0-.329-2.186" class="cls-2" data-name="Trazado 621" transform="translate(-187.875 -22.263)"/>
                <path id="Trazado_622" d="M219.508 20.045v9.7a9.07 9.07 0 0 0 .349 3.412h-2.2a1.687 1.687 0 0 1-.145-.548 3.153 3.153 0 0 1-2.159.784c-2.378 0-3.878-1.841-3.878-4.742 0-2.919 1.627-4.924 4-4.924a2.517 2.517 0 0 1 1.666.528 11.411 11.411 0 0 1-.074-1.389V19.66zm-2.4 6.238a2.046 2.046 0 0 0-1.335-.6c-1.1 0-1.574.911-1.574 2.989 0 2.008.419 2.665 1.7 2.665a1.751 1.751 0 0 0 1.208-.6z" class="cls-2" data-name="Trazado 622" transform="translate(-193.811 -19.66)"/>
                <path id="Trazado_623" d="M227.485 24.034l2.451-.384v9.558h-2.451zm1.262-4.251a1.5 1.5 0 0 1 1.482 1.515 1.509 1.509 0 1 1-3.018 0 1.529 1.529 0 0 1 1.537-1.515" class="cls-2" data-name="Trazado 623" transform="translate(-200.086 -19.709)"/>
                <path id="Trazado_624" d="M233.815 26.807l2.177-.622a2.408 2.408 0 0 1 .348 1.169 8 8 0 0 1 1.079-.694 3.861 3.861 0 0 1 1.684-.4 2.323 2.323 0 0 1 2.246 1.351 3.677 3.677 0 0 1 .186 1.33v6.823h-2.415v-6.076c0-1.06-.183-1.368-.824-1.368a2.864 2.864 0 0 0-1.7.837v6.6h-2.45v-6.764a6.683 6.683 0 0 0-.331-2.186" class="cls-2" data-name="Trazado 624" transform="translate(-202.72 -22.263)"/>
                <path id="Trazado_625" d="M248.267 27.56a7.006 7.006 0 0 1 1.52-.766 6.372 6.372 0 0 1 2.56-.548c1.573 0 2.652.586 3.018 1.623a4.662 4.662 0 0 1 .165 1.678l-.055 3.139v.163a1.909 1.909 0 0 0 .88 1.916l-1.3 1.5a2.612 2.612 0 0 1-1.319-1.133 3.98 3.98 0 0 1-.568.494 3.238 3.238 0 0 1-1.882.51c-2.087 0-3.22-1.057-3.22-2.919 0-2.187 1.519-3.209 4.5-3.209.18 0 .29 0 .546.019v-.384c0-1.039-.2-1.385-1.1-1.385a5.186 5.186 0 0 0-2.707 1.059zm4.812 4.139h-.111c-1.7 0-2.286.311-2.286 1.424a1.111 1.111 0 0 0 1.08 1.223 1.782 1.782 0 0 0 1.28-.639z" class="cls-2" data-name="Trazado 625" transform="translate(-208.405 -22.287)"/>
            </g>
        </g>
        <g id="Grupo_262" data-name="Grupo 262" transform="translate(0 29.851)">
            <path id="Trazado_626" d="M2.256 49.8c-.672 0-1.119.378-1.119.942a.866.866 0 0 0 .164.52 1.009 1.009 0 0 0 .531.292l.338.063c.307.056.448.159.448.356a.354.354 0 0 1-.385.326 2.134 2.134 0 0 1-.962-.326L1 52.521a2.6 2.6 0 0 0 1.17.334c.742 0 1.24-.406 1.24-1a.76.76 0 0 0-.159-.492.9.9 0 0 0-.577-.326l-.351-.09c-.265-.068-.361-.146-.361-.293 0-.169.145-.283.367-.283a1.534 1.534 0 0 1 .712.209l.247-.507a2.176 2.176 0 0 0-1.032-.273" class="cls-3" data-name="Trazado 626" transform="translate(-1 -49.713)"/>
            <path id="Trazado_627" d="M9.47 52.3c-.39 0-.61-.253-.61-.7v-.025h1.673V51.4a1.7 1.7 0 0 0-.384-1.264 1.185 1.185 0 0 0-.837-.3 1.142 1.142 0 0 0-.911.388 1.579 1.579 0 0 0-.362 1.146 1.345 1.345 0 0 0 1.368 1.494 1.677 1.677 0 0 0 1.092-.4l-.293-.451a1.134 1.134 0 0 1-.736.285m-.6-1.285c0-.4.164-.624.452-.624a.367.367 0 0 1 .335.169.744.744 0 0 1 .09.435v.032h-.876z" class="cls-3" data-name="Trazado 627" transform="translate(-3.808 -49.729)"/>
            <path id="Trazado_628" d="M17.411 49.9a1.391 1.391 0 0 1-.356-.062 1.847 1.847 0 0 0-.52-.073c-.742 0-1.22.383-1.22.976a.749.749 0 0 0 .62.8.942.942 0 0 0-.441.219.374.374 0 0 0-.09.265.536.536 0 0 0 .056.237.353.353 0 0 0 .164.14 2.229 2.229 0 0 0 .7.091h.324a.9.9 0 0 1 .4.087.3.3 0 0 1 .136.258.366.366 0 0 1-.183.293.9.9 0 0 1-.482.1c-.349 0-.542-.126-.542-.358a.413.413 0 0 1 .023-.179h-.7a.619.619 0 0 0-.067.3.69.69 0 0 0 .236.513 1.632 1.632 0 0 0 1.1.308 1.576 1.576 0 0 0 1.142-.37.826.826 0 0 0 .232-.6.785.785 0 0 0-.249-.615 1.184 1.184 0 0 0-.877-.259l-.408-.006c-.079 0-.125-.026-.125-.066 0-.081.108-.148.3-.238a1.106 1.106 0 0 0 .114 0c.616 0 1.069-.361 1.069-.855a.7.7 0 0 0-.17-.475 1.471 1.471 0 0 0 .2.016.718.718 0 0 0 .531-.214l-.316-.478a.918.918 0 0 1-.6.246m-.424.847c0 .266-.165.412-.465.412-.265 0-.446-.12-.446-.412a.4.4 0 0 1 .451-.43.407.407 0 0 1 .459.43" class="cls-3" data-name="Trazado 628" transform="translate(-6.677 -49.658)"/>
            <path id="Trazado_629" d="M23.292 51.8a1.71 1.71 0 0 0 .063.574.87.87 0 0 0 .854.468 1.076 1.076 0 0 0 .763-.277.651.651 0 0 0 .227.282l.537-.3a.84.84 0 0 1-.175-.525v-2.209l-.723.151V52a.571.571 0 0 1-.472.275.309.309 0 0 1-.266-.136 1.078 1.078 0 0 1-.06-.474v-1.857l-.748.14z" class="cls-3" data-name="Trazado 629" transform="translate(-9.891 -49.718)"/>
            <path id="Trazado_630" d="M30.791 50.842v1.928h.759v-2.042a.6.6 0 0 1 .464-.242.417.417 0 0 1 .22.057l.209-.666a.613.613 0 0 0-.282-.063.664.664 0 0 0-.249.047 1.313 1.313 0 0 0-.429.365.953.953 0 0 0-.12-.412l-.677.186a2.669 2.669 0 0 1 .105.846" class="cls-3" data-name="Trazado 630" transform="translate(-12.841 -49.72)"/>
            <path id="Trazado_631" d="M36.084 51.346a1.319 1.319 0 0 0 1.3 1.5 1.175 1.175 0 0 0 .955-.4 1.556 1.556 0 0 0 .364-1.115 1.5 1.5 0 0 0-.336-1.054 1.211 1.211 0 0 0-.983-.433 1.336 1.336 0 0 0-1.3 1.507m1.641-.8a1.334 1.334 0 0 1 .154.775c0 .681-.141.973-.47.973a.417.417 0 0 1-.384-.236 2.017 2.017 0 0 1-.1-.728 2.068 2.068 0 0 1 .079-.642.411.411 0 0 1 .396-.293.405.405 0 0 1 .328.151" class="cls-3" data-name="Trazado 631" transform="translate(-14.994 -49.73)"/>
            <path id="Trazado_632" d="M44.552 49.8c-.673 0-1.122.378-1.122.942a.879.879 0 0 0 .166.52 1.011 1.011 0 0 0 .531.292l.338.063c.307.056.448.159.448.356a.354.354 0 0 1-.384.326 2.111 2.111 0 0 1-.961-.326l-.271.552a2.58 2.58 0 0 0 1.168.334c.744 0 1.24-.406 1.24-1a.769.769 0 0 0-.157-.492.9.9 0 0 0-.578-.326l-.35-.09c-.266-.068-.363-.146-.363-.293 0-.169.148-.283.37-.283a1.532 1.532 0 0 1 .712.209l.248-.507a2.184 2.184 0 0 0-1.034-.271" class="cls-3" data-name="Trazado 632" transform="translate(-17.871 -49.713)"/>
        </g>
    </g>
</svg>
