<svg xmlns="http://www.w3.org/2000/svg" width="125" height="37.067" viewBox="0 0 125 37.067">
    <defs>
        <style>
            .cls-1,.cls-2{fill:#fff}.cls-2{fill-rule:evenodd}
        </style>
    </defs>
    <g id="logo-berkley-white" transform="translate(0 -2.52)">
        <path id="Trazado_273" d="M95.628 11.57h2.183v13.55c.867-.842 6.533-6.292 6.533-6.292l2.992.008s-4.275 4.117-6.367 6.125c2.358 2.867 7.108 8.65 7.108 8.65l-2.907-.011-5.65-7.23L97.828 28l-.008 5.57h-2.2c.008 0 .008-14.642.008-22z" class="cls-1" data-name="Trazado 273" transform="translate(-15.937 -1.508)"/>
        <path id="Trazado_274" d="M136.393 42.4l3.342-7.908-5.525-14.177h2.608l3.958 11.558 4.342-11.583h2.25s-1.15 3.042-1.717 4.517c-2.15 5.6-6.725 17.583-6.725 17.583h-2.533z" class="cls-1" data-name="Trazado 274" transform="translate(-22.368 -2.962)"/>
        <path id="Trazado_275" d="M112.235 11.57h2.225v18.592a5.162 5.162 0 0 0 .092 1.133c.05.217.25.575.4.575.933.025.758.675.758 1.233 0 .25-.025.492-.042.725a2.644 2.644 0 0 1-3.35-2.3 7.388 7.388 0 0 1-.1-1.208q-.012-9.063 0-18.125a4.086 4.086 0 0 1 .017-.625z" class="cls-1" data-name="Trazado 275" transform="translate(-18.702 -1.508)"/>
        <ellipse id="Elipse_6" cx=".108" cy="18.533" class="cls-1" data-name="Elipse 6" rx=".108" ry="18.533" transform="translate(29.55 2.52)"/>
        <g id="Grupo_128" data-name="Grupo 128" transform="translate(0 2.662)">
            <path id="Trazado_276" d="M22.083 21.1a11.061 11.061 0 0 1-11.016 11.065v-3.583a7.463 7.463 0 0 0 0-14.925v-3.584A11.03 11.03 0 0 1 22.083 21.1zM11.067 32.165v-3.583a7.463 7.463 0 1 1 0-14.925v-3.584a11.09 11.09 0 0 0-7.483 2.892V2.69H0v18.417a11.07 11.07 0 0 0 11.067 11.058z" class="cls-2" data-name="Trazado 276" transform="translate(0 -2.69)"/>
            <g id="Grupo_127" data-name="Grupo 127" transform="translate(5.292 14.8)">
                <path id="Trazado_277" d="M18 20.45c-1.608 0-5.825 3.358-5.825 3.358S8.625 20.45 6.35 20.45c.617.925.925 1.058.925 3.492 0 1.233-.092 4.067 2.117 4.458a4.285 4.285 0 0 0 .75.042h.883a1.154 1.154 0 0 1 .483.042.844.844 0 0 1 .4.175.8.8 0 0 1 .267.267c.042-.092.175-.175.267-.267a.769.769 0 0 1 .4-.175 1.459 1.459 0 0 1 .483-.042h.883a2.871 2.871 0 0 0 .617-.042h.133c2.208-.4 2.117-3.225 2.117-4.458 0-2.434.308-2.567.925-3.492zm-6.975 6.892a2.044 2.044 0 0 1-.792.133h-.092c-1.233 0-1.767-1.017-1.767-2.3 0-1.058.217-2.65-.175-3.358a1.409 1.409 0 0 1 1.417 1.325c0 .308-.042 1.283-.042 2.117 0 .658.308.842.575.883h.175c.308 0 .617-.217.617-.792 0-.533-.308-.842-.792-.617-.042.042-.175.092-.267.175a1.894 1.894 0 0 1 .267-1.058.938.938 0 0 1 .883-.308 1.027 1.027 0 0 1 .883.658 2.756 2.756 0 0 1 .175 1.325 1.972 1.972 0 0 1-.175.883 1.715 1.715 0 0 1-.89.934zM10.008 25.4a.246.246 0 0 1 .133-.225h.092a.228.228 0 1 1 0 .45h-.092a.255.255 0 0 1-.133-.225zm2.425 2.65a1.1 1.1 0 0 1-.267.4 1.983 1.983 0 0 1-.267-.4 2.107 2.107 0 0 1-.175-.533.841.841 0 0 1 .175-.483 3.082 3.082 0 0 1 .267-.217 1.219 1.219 0 0 1 .267.217.814.814 0 0 1 .217.483 1.307 1.307 0 0 1-.217.533zm3.533-2.875a2.142 2.142 0 0 1-1.15 2.208 2.741 2.741 0 0 1-.617.092h-.042a2.2 2.2 0 0 1-.842-.133 1.8 1.8 0 0 1-.883-.925 3.439 3.439 0 0 1 0-2.208 1.078 1.078 0 0 1 .883-.658.938.938 0 0 1 .883.308 1.619 1.619 0 0 1 .267 1.058.816.816 0 0 0-.267-.175c-.442-.225-.75.092-.75.617 0 .575.267.792.617.792h.135c.267-.042.575-.217.575-.883V23.15a.6.6 0 0 1 .042-.267 1.342 1.342 0 0 1 1.325-1.058c-.35.7-.175 2.292-.175 3.35zm-1.633.225a.246.246 0 0 1-.133.225h-.092a.228.228 0 1 1 0-.45h.092a.238.238 0 0 1 .133.225z" class="cls-2" data-name="Trazado 277" transform="translate(-6.35 -20.45)"/>
                <path id="Trazado_278" d="M12.7 23.058l3.325-2.608H9.38z" class="cls-2" data-name="Trazado 278" transform="translate(-6.855 -20.45)"/>
            </g>
        </g>
        <path id="Trazado_279" d="M57.278 21.915s2.433-.783 2.433-4.792-3.467-5.683-6.183-5.683H45.77v22.192h8.292c3.108 0 6.433-1.75 6.433-6.217s-3.217-5.5-3.217-5.5zm-9.217-8.292h5.967a3.149 3.149 0 0 1 3.325 3.25c0 1 .25 4.217-3.292 4.217h-6zM54.028 31.6h-5.966v-8.4h6.075c2 0 3.858 1.075 3.858 3.642s-.717 4.758-3.967 4.758z" class="cls-1" data-name="Trazado 279" transform="translate(-7.628 -1.487)"/>
        <path id="Trazado_280" d="M77.777 26.063c0-1.808-.408-6.233-5.475-6.233s-6.292 3.392-6.292 8.033c0 6.017 3.15 7.525 6.175 7.525a11.26 11.26 0 0 0 4.9-.992v-2.041a11.512 11.512 0 0 1-4.9.933c-3.092 0-3.967-2.35-3.967-4.5h9.558zm-2.217.583h-7.283s-.492-4.667 3.617-4.667c4.541.009 3.666 4.668 3.666 4.668z" class="cls-1" data-name="Trazado 280" transform="translate(-11.002 -2.885)"/>
        <path id="Trazado_281" d="M130.917 26.063c0-1.808-.408-6.233-5.475-6.233s-6.292 3.392-6.292 8.033c0 6.017 3.15 7.525 6.175 7.525a11.3 11.3 0 0 0 4.9-.992v-2.041a11.512 11.512 0 0 1-4.9.933c-3.092 0-3.967-2.35-3.967-4.5h9.558zm-2.217.583h-7.283s-.492-4.667 3.617-4.667c4.541.009 3.666 4.668 3.666 4.668z" class="cls-1" data-name="Trazado 281" transform="translate(-19.858 -2.885)"/>
        <path id="Trazado_282" d="M83.3 20.022h1.408l.392 1.217a7.386 7.386 0 0 1 4.367-1.508c1.892 0 2.042.292 2.042.292v2.283a4.3 4.3 0 0 0-2.133-.483 6.978 6.978 0 0 0-3.692.925V34.93H83.3z" class="cls-1" data-name="Trazado 282" transform="translate(-13.883 -2.868)"/>
    </g>
</svg>
