<svg xmlns="http://www.w3.org/2000/svg" width="125" height="31.156" viewBox="0 0 125 31.156">
    <defs>
        <style>
            .cls-1{fill:#fff;fill-rule:evenodd}
        </style>
    </defs>
    <g id="logo-zurich-white" transform="translate(-.1 -6.31)">
        <path id="Trazado_309" d="M15.686 6.31A15.583 15.583 0 0 0 3.294 31.345l12.951-17.021h-2.777a20.965 20.965 0 0 0-3.861.3 4.048 4.048 0 0 0-1.584.65 6.177 6.177 0 0 0-1.585 1.886c-.05.092-.117.225-.208.4l-.759-.167 1.268-4.9h16.228l-12.9 17.238a17.1 17.1 0 0 1 1.851-.092c.525 0 1.318.033 2.377.092l2.293.133c.826.05 1.526.075 2.052.075a8.743 8.743 0 0 0 2.71-.325 5.942 5.942 0 0 0 1.668-.809 7.75 7.75 0 0 0 2.31-2.635l.234-.459.684.175a9.734 9.734 0 0 1-.684 1.943 7.933 7.933 0 0 1-2.552 3.377 6.276 6.276 0 0 1-3.778 1.243h-.217a27.483 27.483 0 0 1-4.462-.484 33.566 33.566 0 0 0-5.246-.534 15.918 15.918 0 0 0-2.535.2 8.093 8.093 0 0 0-2.577.776A15.58 15.58 0 1 0 15.686 6.31z" class="cls-1" data-name="Trazado 309"/>
        <path id="Trazado_310" d="M60.874 16.17H48.948l-1.468 3.236a10.7 10.7 0 0 1 1.109-.525 11.226 11.226 0 0 1 2.143-.609 13.843 13.843 0 0 1 2.135-.183c.417-.008.809-.017 1.176-.017h1.768L46.53 31.331h13.118l1.518-3.461a11.526 11.526 0 0 1-1.117.584 10.342 10.342 0 0 1-2.449.746 16.471 16.471 0 0 1-2.385.208c-.317.008-.717.008-1.218.008h-2.322l9.2-13.251z" class="cls-1" data-name="Trazado 310" transform="translate(-7.71 -1.637)"/>
        <path id="Trazado_311" d="M110.049 31.328a2.128 2.128 0 0 1-.467-.534 2.382 2.382 0 0 1-.234-.459A3.967 3.967 0 0 1 109.14 29v-9.14l.008-.892a5.384 5.384 0 0 1 .158-1.71 2.037 2.037 0 0 1 .217-.475 2.286 2.286 0 0 1 .567-.634h-4.87a2.76 2.76 0 0 1 .567.6 1.9 1.9 0 0 1 .234.492 5.354 5.354 0 0 1 .158 1.635c0 .459.008.767.008.909v9.082a4.221 4.221 0 0 1-.242 1.468 1.906 1.906 0 0 1-.242.442 3.69 3.69 0 0 1-.459.534h4.8z" class="cls-1" data-name="Trazado 311" transform="translate(-17.456 -1.634)"/>
        <path id="Trazado_312" d="M126.713 16.227a7.5 7.5 0 0 0-.926-.25 12.539 12.539 0 0 0-2.669-.267 10.8 10.8 0 0 0-4.328.809 8.934 8.934 0 0 0-2.085 1.234 7.756 7.756 0 0 0-2.885 6.2 7.394 7.394 0 0 0 2.769 5.963 8.888 8.888 0 0 0 5.671 1.76 13.807 13.807 0 0 0 4.253-.684c.058-.017.133-.042.25-.075v-2.76a8.504 8.504 0 0 1-.709.45 7.476 7.476 0 0 1-.934.459 6.653 6.653 0 0 1-2.644.567 5.14 5.14 0 0 1-3.9-1.635 6.082 6.082 0 0 1-1.518-4.2 6.343 6.343 0 0 1 1.368-4.095 5.183 5.183 0 0 1 1.374-1.133 5.916 5.916 0 0 1 2.935-.726 7.142 7.142 0 0 1 2.727.55 4.919 4.919 0 0 1 1.251.684v-2.851z" class="cls-1" data-name="Trazado 312" transform="translate(-18.884 -1.561)"/>
        <path id="Trazado_313" d="M143.081 24.453v3.7a11.387 11.387 0 0 1-.067 1.543 3.308 3.308 0 0 1-.158.659 2.2 2.2 0 0 1-.55.792c-.042.042-.117.108-.208.192h4.845a3.264 3.264 0 0 1-.409-.467 2.538 2.538 0 0 1-.284-.5 3.277 3.277 0 0 1-.2-1.368c-.008-.45-.008-.709-.008-.784l.008-8.348v-.9a6.035 6.035 0 0 1 .167-1.6 1.958 1.958 0 0 1 .242-.559 2.01 2.01 0 0 1 .6-.634h-4.954a2.1 2.1 0 0 1 .55.617 2.505 2.505 0 0 1 .25.525 5.193 5.193 0 0 1 .158 1.593V22.6h-6.8v-2.767c0-.834.017-1.384.042-1.793a2.83 2.83 0 0 1 .117-.659 3.3 3.3 0 0 1 .634-1.042c.033-.033.092-.092.167-.158h-4.862a3.841 3.841 0 0 1 .5.584 2.142 2.142 0 0 1 .259.517 4.239 4.239 0 0 1 .167 1.6l.008.959v8.3a14 14 0 0 1-.058 1.6 2.639 2.639 0 0 1-.15.6 2.081 2.081 0 0 1-.584.851c-.033.033-.092.083-.167.15h4.8a2.435 2.435 0 0 1-.4-.5 2.538 2.538 0 0 1-.242-.475 3.332 3.332 0 0 1-.225-1.326c-.008-.325-.008-.625-.008-.909v-3.679z" class="cls-1" data-name="Trazado 313" transform="translate(-21.959 -1.639)"/>
        <path id="Trazado_314" d="M66.21 16.167a1.928 1.928 0 0 1 .55.609 2.057 2.057 0 0 1 .217.525 3.226 3.226 0 0 1 .1.7c.008.167.008.484.008.942l.008.876v4.337c0 1.534.008 2.06.058 2.677a4.962 4.962 0 0 0 1.059 2.785 5.6 5.6 0 0 0 2.56 1.776 8.393 8.393 0 0 0 2.769.425 9.3 9.3 0 0 0 3.069-.475 5.85 5.85 0 0 0 2.26-1.518 5.053 5.053 0 0 0 1.232-2.935 24.451 24.451 0 0 0 .1-2.719v-4.361l-.008-.859v-.125a5.828 5.828 0 0 1 .142-1.5 1.973 1.973 0 0 1 .684-1.042c.092-.075.125-.092.175-.133h-4.5a2.337 2.337 0 0 1 .334.659 2.967 2.967 0 0 1 .125.567 20.888 20.888 0 0 1 .1 2.519v4.712a16.769 16.769 0 0 1-.125 2.569 3.031 3.031 0 0 1-.392 1.109 2.971 2.971 0 0 1-1.868 1.3 4.329 4.329 0 0 1-1.076.125 4.137 4.137 0 0 1-2.06-.492 2.61 2.61 0 0 1-.9-.784 4.509 4.509 0 0 1-.55-2.777l-.017-1.91V19.9a19.065 19.065 0 0 1 .1-2.519 2.794 2.794 0 0 1 .375-1.092c.017-.033.05-.075.083-.142H66.21z" class="cls-1" data-name="Trazado 314" transform="translate(-10.978 -1.634)"/>
        <path id="Trazado_315" d="M91.056 28.219c0 .275 0 .534.008.759a3.707 3.707 0 0 0 .2 1.4 2.084 2.084 0 0 0 .259.459 4.39 4.39 0 0 0 .417.492h-4.82a3.968 3.968 0 0 0 .509-.525 2.1 2.1 0 0 0 .267-.484 4.179 4.179 0 0 0 .175-1.468V18.9a5.636 5.636 0 0 0-.15-1.618 2.1 2.1 0 0 0-.267-.55 2.521 2.521 0 0 0-.509-.567h3.92c.484 0 .951.008 1.409.017a11.863 11.863 0 0 1 2.594.267 4.909 4.909 0 0 1 2.46 1.368 3.544 3.544 0 0 1 1.025 2.483 4.014 4.014 0 0 1-.183 1.168 3.687 3.687 0 0 1-1.193 1.732 6.714 6.714 0 0 1-1.868 1.084 7.115 7.115 0 0 1-.675.234l2.352 2.769c.284.334.65.751 1.109 1.234a36.358 36.358 0 0 0 1.718 1.76c.234.217.45.417.65.592l.55.459h-1.9c-.284 0-.542 0-.784-.008a3.2 3.2 0 0 1-1.509-.35 6.621 6.621 0 0 1-1.568-1.243 22.512 22.512 0 0 1-.742-.817c-.284-.325-.5-.575-.634-.734l-2.81-3.369v3.411zm.242-4.687a6.181 6.181 0 0 0 .792-.067 4.906 4.906 0 0 0 1.91-.617 3.069 3.069 0 0 0 .709-.567 2.478 2.478 0 0 0 .592-1.71 2.345 2.345 0 0 0-.784-1.868 2.836 2.836 0 0 0-1.026-.55 7.554 7.554 0 0 0-2.043-.259c-.125 0-.208 0-.392.008v5.612a1.4 1.4 0 0 0 .242.017z" class="cls-1" data-name="Trazado 315" transform="translate(-14.45 -1.636)"/>
    </g>
</svg>
