<svg xmlns="http://www.w3.org/2000/svg" width="125" height="36.097" viewBox="0 0 125 36.097">
    <defs>
        <style>
            .cls-1,.cls-2{fill:#fff}.cls-1{fill-rule:evenodd}
        </style>
    </defs>
    <g id="logo-sancor-seguros-white" transform="translate(-.31 -4.37)">
        <path id="Trazado_316" d="M18.3 4.37A18.01 18.01 0 0 1 36 19.144H22.784l-2.027-4.763-2.611-6.132-2.611 6.132-2.611 6.132H36.2A17.989 17.989 0 0 1 .66 25.918h12.706l2.019 4.788 2.594 6.165 2.594-6.165 2.594-6.165H.435A18.05 18.05 0 0 1 18.3 4.37z" class="cls-1" data-name="Trazado 316"/>
        <path id="Trazado_317" d="M54.606 21.065A9.557 9.557 0 0 1 52.2 20.8a12.85 12.85 0 0 1-1.935-.659v-2.847h.275a6.554 6.554 0 0 0 1.985 1.168 5.872 5.872 0 0 0 2.1.409 6.152 6.152 0 0 0 .676-.058 1.977 1.977 0 0 0 .684-.184 1.511 1.511 0 0 0 .526-.375.949.949 0 0 0 .217-.642.9.9 0 0 0-.35-.734 2.148 2.148 0 0 0-.843-.409q-.613-.163-1.3-.3a10.367 10.367 0 0 1-1.293-.35 3.972 3.972 0 0 1-1.99-1.319 3.5 3.5 0 0 1-.6-2.077A3.23 3.23 0 0 1 51.77 9.7a5.879 5.879 0 0 1 3.554-1.04 10.765 10.765 0 0 1 2.127.217 9.281 9.281 0 0 1 1.885.584V12.2h-.259a6.253 6.253 0 0 0-1.643-.951 5.18 5.18 0 0 0-1.969-.392 4.512 4.512 0 0 0-.709.058 2.533 2.533 0 0 0-.659.217 1.248 1.248 0 0 0-.484.375.873.873 0 0 0-.2.567.921.921 0 0 0 .325.734A3.174 3.174 0 0 0 55 13.29c.4.092.793.184 1.16.259a10.818 10.818 0 0 1 1.193.35 4.055 4.055 0 0 1 1.852 1.21 3.083 3.083 0 0 1 .609 2 3.418 3.418 0 0 1-1.4 2.87 6.148 6.148 0 0 1-3.8 1.084zm8.784-.217l4.055-11.971h3.287l4.054 11.971h-3.095l-.742-2.419h-3.8l-.734 2.419zm6.866-4.613l-1.226-3.971-1.23 3.971zm18.912 4.613h-2.895l-4.63-8.348v8.351H78.9V8.877h3.7l3.837 6.857V8.877h2.745l-.008 11.971zm10.077.225a5.676 5.676 0 0 1-4.271-1.627 6.277 6.277 0 0 1-1.585-4.58 6.382 6.382 0 0 1 1.585-4.547 5.579 5.579 0 0 1 4.271-1.693 8.593 8.593 0 0 1 1.285.083 7.452 7.452 0 0 1 1.093.225 8.128 8.128 0 0 1 .893.334c.317.133.576.259.784.359v2.853h-.3a10.163 10.163 0 0 0-.542-.459 5.914 5.914 0 0 0-.751-.517 4.9 4.9 0 0 0-.918-.434 3.164 3.164 0 0 0-1.051-.184 3.612 3.612 0 0 0-1.193.2 2.949 2.949 0 0 0-1.034.709 3.281 3.281 0 0 0-.734 1.235 5.27 5.27 0 0 0-.284 1.835 5.147 5.147 0 0 0 .3 1.877 3.414 3.414 0 0 0 .784 1.226 2.811 2.811 0 0 0 1.043.651 3.474 3.474 0 0 0 1.143.2 3.41 3.41 0 0 0 1.135-.192 5.465 5.465 0 0 0 .909-.434 5.541 5.541 0 0 0 .709-.5c.2-.175.384-.317.526-.459h.275v2.8c-.217.1-.476.217-.759.35a6.748 6.748 0 0 1-.893.334 10.647 10.647 0 0 1-1.051.259 7.579 7.579 0 0 1-1.368.092zm19.563-6.373a6.424 6.424 0 0 1-1.552 4.563 6.237 6.237 0 0 1-8.5-.025 6.471 6.471 0 0 1-1.543-4.547 6.45 6.45 0 0 1 1.543-4.555 6.237 6.237 0 0 1 8.5-.008 6.422 6.422 0 0 1 1.552 4.572zm-3.095-.008a6.829 6.829 0 0 0-.225-1.827 3.547 3.547 0 0 0-.592-1.235 2.166 2.166 0 0 0-.876-.7 2.5 2.5 0 0 0-1.009-.217A2.622 2.622 0 0 0 112 10.9a2.35 2.35 0 0 0-.868.7 3.48 3.48 0 0 0-.6 1.235 6.567 6.567 0 0 0-.234 1.844 6.6 6.6 0 0 0 .217 1.827 3.686 3.686 0 0 0 .592 1.218 2.246 2.246 0 0 0 .876.709 2.526 2.526 0 0 0 1.009.217 2.487 2.487 0 0 0 1.026-.234 2.185 2.185 0 0 0 .859-.709 3.765 3.765 0 0 0 .592-1.218 5.1 5.1 0 0 0 .242-1.8zm17.877 6.157h-3.67l-3.337-4.4h-1.059v4.4h-2.995V8.877h4.813a9.658 9.658 0 0 1 1.735.123 3.635 3.635 0 0 1 1.368.517 3.2 3.2 0 0 1 1.018 1.043 3.076 3.076 0 0 1 .375 1.6 3.615 3.615 0 0 1-.626 2.227 4.4 4.4 0 0 1-1.66 1.36l4.038 5.1zm-4.847-8.317a1.614 1.614 0 0 0-.175-.776 1.138 1.138 0 0 0-.567-.509 1.912 1.912 0 0 0-.626-.15 8.193 8.193 0 0 0-.851-.033h-1v3.228h.851a5.449 5.449 0 0 0 1.059-.083 1.518 1.518 0 0 0 .734-.325 1.439 1.439 0 0 0 .425-.534 1.791 1.791 0 0 0 .15-.818z" class="cls-2" data-name="Trazado 317" transform="translate(-8.281 -.678)"/>
        <path id="Trazado_318" d="M54.975 40.9a10.86 10.86 0 0 1-2.528-.259 13.432 13.432 0 0 1-2.027-.651v-2.8h.28a7.37 7.37 0 0 0 2.077 1.16 6.642 6.642 0 0 0 2.2.409c.184 0 .409-.025.709-.05a2.249 2.249 0 0 0 .709-.175 1.536 1.536 0 0 0 .559-.375.893.893 0 0 0 .225-.634.882.882 0 0 0-.367-.726 2.544 2.544 0 0 0-.884-.409c-.425-.108-.884-.2-1.368-.3a10.1 10.1 0 0 1-1.36-.35 4.249 4.249 0 0 1-2.094-1.3 3.259 3.259 0 0 1-.626-2.044 3.14 3.14 0 0 1 1.493-2.686 6.439 6.439 0 0 1 3.729-1.026 11.874 11.874 0 0 1 2.236.217 10.511 10.511 0 0 1 1.985.576v2.695h-.267a6.4 6.4 0 0 0-1.71-.951 5.727 5.727 0 0 0-2.069-.392 6.221 6.221 0 0 0-.734.05 2.741 2.741 0 0 0-.692.217 1.372 1.372 0 0 0-.509.367.841.841 0 0 0-.217.559.867.867 0 0 0 .342.717 3.6 3.6 0 0 0 1.318.476c.417.083.826.175 1.218.259a11.588 11.588 0 0 1 1.251.35 4.277 4.277 0 0 1 1.946 1.189 2.947 2.947 0 0 1 .634 1.977 3.357 3.357 0 0 1-1.468 2.836 6.606 6.606 0 0 1-3.991 1.074zm7.058-.209V28.874h8.5v2.261h-5.356v2.061h4.939v2.261h-4.939v2.97h5.356v2.261h-8.5zm21.139-.676a17.79 17.79 0 0 1-2.152.626 11.708 11.708 0 0 1-2.6.3 6.747 6.747 0 0 1-4.722-1.6 5.871 5.871 0 0 1-1.76-4.563 5.831 5.831 0 0 1 1.76-4.455 6.683 6.683 0 0 1 4.813-1.677 9.424 9.424 0 0 1 2.569.284 14.8 14.8 0 0 1 2.044.767v2.77h-.294c-.15-.108-.367-.267-.651-.467a7.862 7.862 0 0 0-.834-.517 6.087 6.087 0 0 0-1.093-.434 4.456 4.456 0 0 0-1.318-.184 4.385 4.385 0 0 0-1.477.242 3.4 3.4 0 0 0-1.193.734 3.467 3.467 0 0 0-.793 1.21 4.63 4.63 0 0 0-.292 1.7 3.9 3.9 0 0 0 1.11 3.07 4.374 4.374 0 0 0 3.02.984c.117 0 .242 0 .4-.008s.284-.017.4-.025v-2.315h-2.435v-2.228h5.5v5.79zm7.458.926a5.883 5.883 0 0 1-3.9-1.151 4.172 4.172 0 0 1-1.36-3.362v-7.55h3.162v7.366a2.887 2.887 0 0 0 .492 1.835 1.948 1.948 0 0 0 1.6.6 2.021 2.021 0 0 0 1.593-.576 2.771 2.771 0 0 0 .509-1.86v-7.361h3.162v7.533a4.212 4.212 0 0 1-1.335 3.354 5.759 5.759 0 0 1-3.929 1.176zm19.287-.25h-3.854l-3.5-4.338h-1.118v4.338H98.3V28.874h5.055a11.779 11.779 0 0 1 1.827.125 3.9 3.9 0 0 1 1.435.517 3.228 3.228 0 0 1 1.068 1.026 2.863 2.863 0 0 1 .4 1.585 3.525 3.525 0 0 1-.651 2.2 4.448 4.448 0 0 1-1.744 1.343l4.221 5.022zm-5.08-8.209a1.494 1.494 0 0 0-.184-.767 1.173 1.173 0 0 0-.6-.5 1.962 1.962 0 0 0-.659-.15c-.242-.025-.542-.025-.9-.025h-1.051v3.187h.9a7.063 7.063 0 0 0 1.118-.075 1.672 1.672 0 0 0 .776-.325 1.422 1.422 0 0 0 .45-.526 1.908 1.908 0 0 0 .15-.818zm17.451 2.318a6.114 6.114 0 0 1-1.627 4.5 6.844 6.844 0 0 1-8.918-.017 6.17 6.17 0 0 1-1.618-4.488 6.116 6.116 0 0 1 1.618-4.5 6.831 6.831 0 0 1 8.918-.008 6.1 6.1 0 0 1 1.627 4.5zm-3.245-.017a6.2 6.2 0 0 0-.234-1.794 3.464 3.464 0 0 0-.626-1.226 2.255 2.255 0 0 0-.918-.692 2.887 2.887 0 0 0-1.059-.209 2.853 2.853 0 0 0-1.059.192 2.45 2.45 0 0 0-.909.692 3.449 3.449 0 0 0-.626 1.226 7.165 7.165 0 0 0-.012 3.628 3.484 3.484 0 0 0 .626 1.2 2.278 2.278 0 0 0 .918.7 2.887 2.887 0 0 0 1.059.209 2.678 2.678 0 0 0 1.076-.225 2.344 2.344 0 0 0 .9-.7 4.005 4.005 0 0 0 .626-1.2 5.4 5.4 0 0 0 .242-1.8zm8.993 6.123a10.86 10.86 0 0 1-2.528-.259 13.432 13.432 0 0 1-2.027-.651v-2.8h.284a7.37 7.37 0 0 0 2.077 1.16 6.642 6.642 0 0 0 2.2.409c.184 0 .409-.025.709-.05a2.249 2.249 0 0 0 .709-.175 1.537 1.537 0 0 0 .559-.375.893.893 0 0 0 .225-.634.882.882 0 0 0-.367-.726 2.544 2.544 0 0 0-.877-.415c-.425-.108-.884-.2-1.368-.3a10.1 10.1 0 0 1-1.36-.35 4.249 4.249 0 0 1-2.094-1.3 3.259 3.259 0 0 1-.626-2.044 3.14 3.14 0 0 1 1.493-2.686 6.439 6.439 0 0 1 3.729-1.026 11.941 11.941 0 0 1 2.236.217 10.511 10.511 0 0 1 1.985.576v2.695h-.275a6.4 6.4 0 0 0-1.71-.951 5.727 5.727 0 0 0-2.069-.392 6.221 6.221 0 0 0-.734.05 2.741 2.741 0 0 0-.692.217 1.372 1.372 0 0 0-.509.367.841.841 0 0 0-.217.559.867.867 0 0 0 .342.717 3.6 3.6 0 0 0 1.318.476c.417.083.826.175 1.218.259a11.589 11.589 0 0 1 1.251.35 4.277 4.277 0 0 1 1.935 1.193 2.947 2.947 0 0 1 .634 1.977 3.357 3.357 0 0 1-1.468 2.836 6.563 6.563 0 0 1-3.979 1.076z" class="cls-2" data-name="Trazado 318" transform="translate(-8.307 -4.023)"/>
    </g>
</svg>
