<svg xmlns="http://www.w3.org/2000/svg" width="602.26" height="350.459" viewBox="0 0 602.26 350.459">
    <defs>
        <style>
            .cls-1{opacity:.172}.cls-2{fill:#45459c}.cls-3{fill:#105262}.cls-4{fill:#40a0a4}.cls-5{opacity:.06}.cls-14,.cls-26,.cls-28,.cls-29,.cls-6{fill:#040006}.cls-7{fill:#afcfc4}.cls-8{fill:#e5c1ac}.cls-9{fill:#41428e}.cls-10{fill:#182f4f}.cls-11{fill:#9ba3aa}.cls-12{fill:#fff}.cls-13{fill:#3ababa}.cls-14{opacity:.03}.cls-15{fill:#e1a946}.cls-16{fill:#221f1f}.cls-16,.cls-26{opacity:.1}.cls-17{fill:#edca60}.cls-18{fill:#edc83d}.cls-19{fill:#efd3c5}.cls-20{fill:#e6caad}.cls-21{fill:#a29ec8}.cls-22{fill:#c5c3de}.cls-23{fill:#479d8d}.cls-24{opacity:.2}.cls-25{fill:#fdfcf0}.cls-27{fill:#34373e}.cls-28{opacity:.26}.cls-29{opacity:.12}.cls-30{fill:#cbcdcf}.cls-31{fill:#e8e8e7}.cls-32{fill:#acacac}.cls-33{fill:#b5b5b6}.cls-34{fill:#f4f4f4}.cls-35{fill:#aeaeae}
        </style>
    </defs>
    <g id="People" transform="translate(-2.19 -4.298)">
        <g id="Grupo_109" data-name="Grupo 109">
            <g id="Grupo_103" transform="translate(-49 -129.224)">
                <g id="Shadow_1_" class="cls-1" transform="translate(49 437.952)">
                    <path id="Trazado_51" d="M573.94 4.29H80.46c-16.77 0-30.5 3.17-30.5 7.04 0 2.68 6.58 5.02 16.2 6.21H32.69c-16.77 0-30.5 3.17-30.5 7.04s13.72 7.04 30.5 7.04h3.04c-4.54 1.23-7.3 2.82-7.3 4.55v2.82c0 3.87 13.72 7.04 30.5 7.04h485.59c16.77 0 30.5-3.17 30.5-7.04v-2.82c0-3.87-13.72-7.04-30.5-7.04l1.29.16a36.427 36.427 0 0 0 10.05-1.48c5.17-1.74 5.4-4.38 2.87-6.57-1.64-1.42-4.26-2.54-10.76-2.97l25.98.09c16.77 0 30.5-3.17 30.5-7.04-.01-3.86-13.73-7.03-30.51-7.03z" class="cls-2"/>
                </g>
                <g id="Object_1_" transform="translate(81.333 129.224)">
                    <g id="Grupo_102">
                        <g id="Grupo_46" transform="translate(71.34)">
                            <g id="Grupo_37">
                                <g id="Grupo_36">
                                    <path id="Trazado_52" d="M103.61 13.22c-31.83 7.8-48.49-6.64-50.74-8.77 0 0-.05-.22-.13-.13-.09-.09-.13.13-.13.13-2.14 2.26-17.99 17.57-50.2 11.51 0 0-3.35 57.74 15.95 80.74 20.62 24.56 37.65 31.69 37.73 31.63.09.06 16.86-7.84 35.96-33.62 17.88-24.13 11.56-81.49 11.56-81.49z" class="cls-3"/>
                                    <path id="Trazado_53" d="M99.08 19.27c-28.89 6.96-44-5.89-46.04-7.79 0 0-.05-.2-.12-.11-.08-.08-.11.12-.11.12-1.94 2.01-16.33 15.65-45.55 10.27 0 0-3.07 51.41 14.43 71.87 18.7 21.86 34.17 29.57 34.24 29.51.08.06 15.28-8.36 32.63-31.32 16.24-21.48 10.52-72.55 10.52-72.55z" class="cls-4"/>
                                    <g id="Grupo_35" class="cls-5" transform="translate(4.781 4.391)">
                                        <path id="Trazado_54" d="M48.15 12.15s.04-.21.12-.13c.08-.08.13.12.13.12 2.1 1.95 17.35 14.92 46.47 8.56-.28-5.22-.65-8.49-.65-8.49-28.89 6.96-44-5.89-46.04-7.79 0 0-.05-.2-.12-.11-.08-.08-.11.12-.11.12C46.01 6.44 31.62 20.09 2.39 14.7c0 0-.2 3.28-.21 8.51C31.63 28 46.17 14.22 48.15 12.15z" class="cls-6"/>
                                    </g>
                                </g>
                                <path id="Trazado_55" d="M90.86 33.76c-21.83 5.35-35.87-5-37.42-6.47 0 0-.04-.15-.09-.09-.06-.06-.09.09-.09.09-1.46 1.55-14.79 12.61-36.87 8.46 0 0 .16 39.02 13.4 54.79 14.14 16.84 25.81 21.73 25.87 21.68.06.04 11.56-5.38 24.66-23.05 12.24-16.54 10.54-55.41 10.54-55.41z" class="cls-7"/>
                            </g>
                            <g id="Grupo_45" transform="translate(41.541 80.963)">
                                <g id="Grupo_39" transform="translate(0 32.954)">
                                    <g id="Grupo_38">
                                        <path id="Trazado_56" d="M16.52 16.29L13.04 13l-.06-4.22-.9-.44-.59 1.09-1.05-3.49L7.98 4.3 4.3 5.7 2.19 9.17l1.78 3.51 3.92 2.55 4.57 4.7z" class="cls-8"/>
                                    </g>
                                    <path id="Trazado_57" d="M16.18 12.33l-6.26 7.42 16.8 25.51 6.25 2.02L59.6 26.04 52.48 11.5 32.62 28.38z" class="cls-9"/>
                                </g>
                                <g id="Grupo_42" transform="translate(32.265 109.363)">
                                    <g id="Grupo_40" transform="translate(18.513 .785)">
                                        <path id="Trazado_58" d="M49.91 135.46l.93 4.27-7.37 6.08-5.08-3.36 3.22-5.17 7.37-6.08z" class="cls-10"/>
                                        <path id="Trazado_59" d="M24.14 4.29l8.22 18.96.77 53.35 16.91 57.38-7.86 3.49-34.5-66.62-3.93-21.1L2.19 5.3z" class="cls-11"/>
                                    </g>
                                    <g id="Grupo_41">
                                        <path id="Trazado_60" d="M2.84 9.33l-.65 55.91 10.54 72.09h8.1l5.12-66.52L37.04 4.29z" class="cls-11"/>
                                        <path id="Trazado_61" d="M20.78 136.36v4.38l-8.76 4.38-4.38-4.38 4.38-4.38z" class="cls-10"/>
                                    </g>
                                </g>
                                <path id="Trazado_62" d="M51.06 42.99l21.52-.8s12.87 11.3 19.53 40.65c6.77 29.89-1.25 72.91-1.25 72.91s-57.73-7.7-67.2-8.88L38.1 87.86z" class="cls-9"/>
                                <g id="Grupo_43" transform="translate(32.02)">
                                    <path id="Trazado_63" d="M26.75 45.18l7.54-.74a37.9 37.9 0 0 0-.4-6.02c2.1-.73 4.52-1.83 4.89-4.02a6.055 6.055 0 0 0-.12-2.08q-.735-4.275-1.46-8.55a7.838 7.838 0 0 0-.88-2.84c-.94-1.48-2.76-2.13-4.49-2.43a15.6 15.6 0 0 0-12.64 3.06 6.823 6.823 0 0 0-2.14 2.81c-.62 1.73-.16 3.64.3 5.42l1.29 4.92c.49 1.89 1.2 4.03 3.02 4.74.96.38 2.1.27 2.98.83 1.52.97 1.31 3.26 2.11 4.9z" class="cls-8"/>
                                    <path id="Trazado_64" d="M2.2 16.71A24.363 24.363 0 0 1 2.81 11c.67-3.06 4.28-4.44 7.41-4.65 6.75-.47 13.27-3.53 19.86-1.17 3.77 1.35 8.83 1.67 12.24 3.58a10.024 10.024 0 0 1 3.44 3.41 15.182 15.182 0 0 1 .02 16.04 21.826 21.826 0 0 1-2.36 2.97c-1.78 1.93-3.91 4.31-6.36 5.02-.06-2.19 1.94-9.09.27-10.89-2.66-2.85-8.7-1.86-12.01-1.17-3.61.76-6.83 3.31-10.41 3.85-2.58.39-5.86-.88-8.05-2.21-3.43-2.09-4.57-5.54-4.66-9.07z" class="cls-10"/>
                                </g>
                                <path id="Trazado_65" d="M56.99 45.65l-22.62 90.49-1.85 11.87 28.19 3.71s-1.11-43.33-.74-49.11 4.55-18.27 5.19-31.74c.37-7.79 2.84-21.78 1.11-26.33z" class="cls-12"/>
                                <g id="Grupo_44" transform="translate(17.744 52.69)">
                                    <path id="Trazado_66" d="M18.98 41.26l-5.04 1.59-4.1-2.21-.91.63.73 1.15-3.93-.86-2.9 1.5-.63 4.3 2.22 3.9 4.34.17 4.57-2.41 7-1.88z" class="cls-8"/>
                                    <path id="Trazado_67" d="M14.7 41.61l23.49-5.51c2.11-.49 4.29-.6 6.4-1.11 3.08-.75 3.93-1.01 4.36-3.95 1.26-8.52-.34-17.36.95-25.75 3.09-.31 6.08-1.04 9.24-1 5.16.07 4.71 3.61 5 7.57.34 4.69.55 9.39.58 14.09.03 3.89 1.31 20.78-4.41 22.02-4.1.9-45.41 3.1-45.39 3.95-.02-.35-.22-10.31-.22-10.31z" class="cls-9"/>
                                </g>
                            </g>
                        </g>
                        <g id="Grupo_58" transform="translate(0 84.514)">
                            <g id="Grupo_47" transform="translate(43.947 36.301)">
                                <path id="Trazado_68" d="M41.98 14.27l2.9-2.73.05-3.51.75-.37.49.9.88-2.9L49.1 4.3l3.06 1.17 1.75 2.89-1.48 2.92-3.26 2.12-3.8 3.91z" class="cls-8"/>
                                <path id="Trazado_69" d="M42.9 9.98L26.67 29.21 5.49 8.69l-3.3 24.54 25.79 12.79 20.3-30.43z" class="cls-13"/>
                            </g>
                            <g id="Grupo_48" transform="translate(12.949 127.326)">
                                <path id="Trazado_70" d="M3.1 111.5l-.35 3.47 6.3 4.33 3.68-3.04-2.98-3.9-6.3-4.33z" class="cls-10"/>
                                <path id="Trazado_71" d="M3.26 5.45L2.19 15.98l9.45 36.19-8.77 58.16 6.46 2.23 17.03-56.78 2.7-16.52-.1-34.97z" class="cls-8"/>
                            </g>
                            <g id="Grupo_49" transform="translate(31.582 131.364)">
                                <path id="Trazado_72" d="M34.3 13.15L20.72 110.6h-6.18l-1.11-62.47L2.19 4.29z" class="cls-8"/>
                                <path id="Trazado_73" d="M14.58 109.83v3.5l6.68 3.5 3.34-3.5-3.34-3.5z" class="cls-10"/>
                            </g>
                            <path id="Trazado_74" d="M50.71 44.48a5.64 5.64 0 0 0-2.04-1.99c-6.13-3.46-16.3-.41-22.96-.41-1.97 20.71-7.41 40.46-10.92 60.79q-5.595 32.4-12.6 64.54c-.26 1.21 18.53.6 20.3.63 18.08.3 41.74.24 59.19-5.22-11.13-29.89-15.2-62.04-23.96-92.71-1.54-5.38-3.37-10.69-4.75-16.11-.81-3.15-.68-6.95-2.26-9.52z" class="cls-13"/>
                            <path id="Trazado_75" d="M42.51 13.91a12.183 12.183 0 0 1 8.68 10.2 10.729 10.729 0 0 0 .54-15.16 10.593 10.593 0 0 0-2.9-2.2 12.453 12.453 0 0 0-5.98 7.24z" class="cls-3"/>
                            <path id="Trazado_76" d="M51.82 20.05c-2.37-12.49-17.96-10.33-22.44-.22-2.54 5.75.12 13.89 5.21 17.89.11 1.11.25 4.15 1.1 4.89.91.8 3.8.04 4.93-.22a1.768 1.768 0 0 0 .87-.39 3.254 3.254 0 0 0 .34-1.89 10.4 10.4 0 0 0 2.54-.5c3.63-1.19 6.26-4.55 7.34-8.21a24.2 24.2 0 0 0 .11-11.35z" class="cls-8"/>
                            <g id="Grupo_56" transform="translate(25.752 9.574)">
                                <g id="Grupo_50" transform="translate(0 33.539)">
                                    <path id="Trazado_77" d="M-4.73 45.89a8.037 8.037 0 0 1-1.34-2.58 7.948 7.948 0 0 1-.03-4.73 1.307 1.307 0 0 1 1.55-.94 1.294 1.294 0 0 1 .94 1.55 5.557 5.557 0 0 0 .52 4.52 5.294 5.294 0 0 1 .91-.56c1.17-.58 2.94-1.29 4.01-.2 1.22 1.23.51 3-.75 3.85a4.458 4.458 0 0 1-3.41.8c.21 1.56.76 2.3 2.31 2.53.94.14 3.21.07 3.81-.88.39-.61.12-2.28.19-3.04a30.125 30.125 0 0 1 1.22-6.23 33.848 33.848 0 0 1 6.13-11.24c6.12-7.52 14.88-12.6 24.02-15.56.5-.16 1.01-.32 1.52-.47a50.815 50.815 0 0 1 18.71-2.02 18.034 18.034 0 0 1 4.28-5.98C63.96.99 70.13-.51 75.29 1.49a61.3 61.3 0 0 0-5.76 12.73 40.52 40.52 0 0 1 15.86 12.57c.09.12.17.23.25.34l7.17.17s4.49 13.41 3.49 17.78c0 0-5.15 2.98-8.34 4.33a38.5 38.5 0 0 1-10.12 16.51c-.33.32-.66.64-.99.95l3.19 10.76s-7.85 5.38-12.46 5.22l-4.76-6.82a53.141 53.141 0 0 1-6.46 2.37 62.753 62.753 0 0 1-7.9 1.81l-.27 8.4c-3.78 2.65-13.3 2.42-13.3 2.42l-3.2-10.73c-12.6-2.16-22.7-9.63-26.49-22.44a32.659 32.659 0 0 1-.79-3.25 8.946 8.946 0 0 1-5.71-1.07 7.032 7.032 0 0 1-2.9-3.4 6.078 6.078 0 0 1-.53-4.25z" class="cls-8"/>
                                    <path id="Trazado_78" d="M52.83 12.52l-.29 4.29a54.807 54.807 0 0 0-24.96 7.41l-3.55-1.93c-.01 0 9.58-11.98 28.8-9.77z" class="cls-12"/>
                                    <path id="Trazado_79" d="M8.43 57.91c7.03 7.73 17.24 11.6 27.42 12.87a65.751 65.751 0 0 0 23.02-1.01c10.88-2.58 20.06-8.8 28.39-15.92.37-.31.72-.64 1.07-.96a40.515 40.515 0 0 1-8.36 11.77 51.326 51.326 0 0 1-21.48 12.48c-22.8 6.77-44.95-.02-51.1-20.4.34.4.7.78 1.04 1.17z" class="cls-14"/>
                                    <path id="Trazado_80" d="M87.95 26.37s7.41 12.64 2.13 22.01l3.18-1.52c.01.01 1.51-13.22-5.31-20.49z" class="cls-14"/>
                                </g>
                                <g id="Grupo_55" transform="translate(42.111)">
                                    <g id="Grupo_52">
                                        <g id="Grupo_51">
                                            <path id="Trazado_81" d="M-1.41 7.06a13.166 13.166 0 1 0 16.42 8.78A13.165 13.165 0 0 0-1.41 7.06z" class="cls-15"/>
                                            <path id="Trazado_82" d="M-1.75 5.93a14.353 14.353 0 1 0 17.9 9.57 14.352 14.352 0 0 0-17.9-9.57zm7.63 25.16a11.939 11.939 0 1 1 7.96-14.89 11.949 11.949 0 0 1-7.96 14.89z" class="cls-16"/>
                                            <path id="Trazado_83" d="M-2.18 4.52a15.82 15.82 0 1 0 19.73 10.55A15.808 15.808 0 0 0-2.18 4.52zm8.42 27.74a13.166 13.166 0 1 1 8.78-16.42 13.165 13.165 0 0 1-8.78 16.42z" class="cls-17"/>
                                        </g>
                                    </g>
                                    <g id="Grupo_54" transform="translate(10.738 6.266)">
                                        <g id="Grupo_53" transform="translate(0 2.205)">
                                            <path id="Trazado_84" d="M-11.29 16.22c-.19-.06-.28-.28-.38-.47a.842.842 0 0 1 .33-1.14c.04-.02.08-.04.13-.06a4.766 4.766 0 0 1 2.51.16 4.65 4.65 0 0 0 2.03-.15 2.922 2.922 0 0 0 1.63-1.07 1.822 1.822 0 0 0 .25-1.63 1.5 1.5 0 0 0-.92-1.11 3.58 3.58 0 0 0-1.97.17l-.58.17a5.437 5.437 0 0 1-3.54.08 3.272 3.272 0 0 1-1.9-2.27 3.323 3.323 0 0 1 .33-2.91 4.873 4.873 0 0 1 2.81-1.84 5.059 5.059 0 0 1 1.73-.23c1.28.03 3.49.4 3.43 1.68-.07 1.46-2.68.15-3.5.06a3.911 3.911 0 0 0-1.56.17 2.42 2.42 0 0 0-1.44 1 1.757 1.757 0 0 0-.21 1.51 1.232 1.232 0 0 0 .96.95 7.354 7.354 0 0 0 2.79-.4 5.357 5.357 0 0 1 3.47-.03 3.393 3.393 0 0 1 1.79 2.33 3.656 3.656 0 0 1-.31 3.06 4.475 4.475 0 0 1-2.71 1.92 7.151 7.151 0 0 1-1.38.26 9.693 9.693 0 0 1-3.79-.21z" class="cls-18"/>
                                        </g>
                                        <path id="Trazado_85" d="M-5.64 21.47h-.02a.9.9 0 0 1-1.06-.68l-4.62-15.56a.9.9 0 0 1 .52-1.15h.02a.9.9 0 0 1 1.06.68l4.62 15.56a.892.892 0 0 1-.52 1.15z" class="cls-18"/>
                                    </g>
                                </g>
                            </g>
                            <g id="Grupo_57" transform="translate(7.19 43.716)">
                                <path id="Trazado_86" d="M28.58 45.23l4.66 1.52 3.82-2.02.84.59-.69 1.06 3.65-.76 2.68 1.41.54 3.99L42 54.63l-4.02.11-4.21-2.27-6.47-1.81z" class="cls-19"/>
                                <path id="Trazado_87" d="M17.48 40.69a6.664 6.664 0 0 1-3.11-5.34 29.23 29.23 0 0 1 .78-6.79 55.8 55.8 0 0 0-.48-21.62c-1.55-7.04-9.77 1.82-10.79 5-1.13 3.52-.82 7.36-1.09 11q-.555 7.335-.53 14.7c.01 3.1-.75 10.43 2.52 12.21a9.1 9.1 0 0 0 2.89.81c1.56.25 20.18 2.6 20.47 1.68l2.57-8.11c-3.87-.79-9.68-1.14-13.23-3.54z" class="cls-13"/>
                            </g>
                            <path id="Trazado_88" d="M28.76 69.6c.12-.01.24-.02.36-.04 2.75-.47 7.17-1.36 8.44-4.26 1.31-2.97-1.02-8.36-1.4-11.45-.58-4.69-.78-9.42-1-14.14a21.6 21.6 0 0 1 3.54-12.08 67.669 67.669 0 0 1 8-9.93 10.011 10.011 0 0 0 2.79-4.45 6.559 6.559 0 0 0-1.63-5.44 9.241 9.241 0 0 0-7.2-3.52c-10.32-.25-18.07 5.86-21 15.93-4.19 14.44 1.04 28.21.26 42.58a13.738 13.738 0 0 1-2.32 6.9c.38-.53 8.93.03 11.16-.1z" class="cls-3"/>
                        </g>
                        <g id="Grupo_75" transform="translate(359.853 9.768)">
                            <g id="Grupo_59" transform="translate(96.09 61.764)">
                                <path id="Trazado_89" d="M3.32 13.29L2.19 4.93l3.55-.64 2.04 5.55 1.54-1.08.09 7.27-3.6 1.16z" class="cls-20"/>
                                <path id="Trazado_90" d="M56.36 57.35l-31.81-8.72-14.34-35.06-7.03 2.67 7.74 45.15 36.52 19.42z" class="cls-21"/>
                            </g>
                            <g id="Grupo_62" transform="translate(98.899 73.275)">
                                <g id="Grupo_60" transform="translate(9.778 121.943)">
                                    <path id="Trazado_91" d="M37.7 8.99V20.2L22.75 68.79l3.74 50.46-9.34 1.87L2.2 59.44l.57-18.14 6.9-37z" class="cls-10"/>
                                    <path id="Trazado_92" d="M25.84 22.26l15.02 102.78h6.83L52 68.98l9.34-56.06z" class="cls-10"/>
                                    <path id="Trazado_93" d="M18.69 122.39l-7.13 7.55 2.06 3.83 14.72-7.06-2.71-5.59z" class="cls-10"/>
                                    <path id="Trazado_94" d="M40.99 127.44l-8.79 5.53 1.04 4.22 16.02-3.16-1.23-6.09z" class="cls-10"/>
                                </g>
                                <g id="Grupo_61" transform="translate(13.265)">
                                    <path id="Trazado_95" d="M13.61 18.56c6.06.45 11.72-4.53 17.68-3.29 3.88.8 6.93 4.24 8.12 8.11a9.785 9.785 0 0 1 .21 5.57 9.246 9.246 0 0 1-1.76 3.15 13.291 13.291 0 0 1-3.64 3.08 24.769 24.769 0 0 0 2.59 3.44l-8.38 3.21-1.85-4.81a12.491 12.491 0 0 1-2.5-.38A14.468 14.468 0 0 1 13.9 25.89a28.6 28.6 0 0 1-.29-7.33z" class="cls-8"/>
                                    <path id="Trazado_96" d="M15.14 20.39l18.72-2.23 3.63 14.3 5.29-4.2-2.72-23.4-26.43-.57-11.44 6.72.48 6.73 10.23 6.89z" class="cls-10"/>
                                </g>
                                <path id="Trazado_97" d="M35.67 44.04l22.24-8.82a386.166 386.166 0 0 1 19.38 53.41c8.99 31.45-2.9 75.13-2.9 75.13S12.37 151.1 2.19 149.1l20.07-62.9z" class="cls-22"/>
                            </g>
                            <g id="Grupo_73">
                                <g id="Grupo_72">
                                    <path id="Trazado_98" d="M137.72 50.17l-6.83-8.3-.23-.03-.99-2.88-5.22-15.21c-1.53-4.46-2.48-11.88-8.16-12.59L62.3 4.41a15.62 15.62 0 0 0-15.2 7.58L35.67 30.72l-.9-.1-18.8 3.44A18.649 18.649 0 0 0 3.51 49.38L2.19 60l137.08 17.14 1.89-15.11a15.647 15.647 0 0 0-3.44-11.86z" class="cls-23"/>
                                    <path id="Trazado_99" d="M86.11 34.72l36.02 4.51-5.66-21.17a2.607 2.607 0 0 0-2.17-1.95l-25.46-3.18z" class="cls-7"/>
                                    <path id="Trazado_100" d="M82.67 12.14L62.04 9.56a11.383 11.383 0 0 0-11.08 5.53l-8.64 14.15 37.62 4.71z" class="cls-7"/>
                                    <g id="Grupo_63" class="cls-24" transform="translate(48.684 6.605)">
                                        <path id="Trazado_101" d="M68.16 16.44l1.34.95-1.55-5.79a2.621 2.621 0 0 0-2.17-1.95l-8.82-1.1c3.72 2.65 7.47 5.26 11.2 7.89z" class="cls-25"/>
                                        <path id="Trazado_102" d="M68.26 21.34C62.09 16.94 55.65 12 49.57 7.48l-8.29-.9c5.06 5.57 11.69 10.79 17.53 15.48q5.265 4.23 10.85 8.04c1.22.83 2.51 1.6 3.8 2.38l-2.45-9.16c-.92-.67-1.83-1.33-2.75-1.98z" class="cls-25"/>
                                        <path id="Trazado_103" d="M25.87 17.77c-2.56-2.15-5.23-4.16-7.93-6.12-2.73-1.99-5.51-3.98-8.42-5.7-.96-.57-1.93-1.11-2.9-1.65a11.863 11.863 0 0 0-4.34 4.19l-.08.14c2.84 2.57 5.71 5.1 8.52 7.68 4.17 3.82 8.91 6.9 13.52 10.15l7.03.88.49-3.95c-1.97-1.88-3.82-3.87-5.89-5.62z" class="cls-25"/>
                                    </g>
                                    <g id="Grupo_64" transform="translate(32.096 47.013)">
                                        <path id="Trazado_104" d="M21.99 19.47a9.925 9.925 0 0 0 .42-1.87c.79-6.34-4.63-12.25-12.11-13.18a15.312 15.312 0 0 0-8.1 1.14 25.923 25.923 0 0 1 11.21 7.8 20.842 20.842 0 0 1 3.4 5.43z" class="cls-26"/>
                                    </g>
                                    <g id="Grupo_65" transform="translate(103.575 55.937)">
                                        <path id="Trazado_105" d="M21.48 19.42a9.182 9.182 0 0 0 .41-1.87c.79-6.35-4.48-12.23-11.79-13.14a14.742 14.742 0 0 0-7.92 1.16 25.154 25.154 0 0 1 10.93 7.76 20.913 20.913 0 0 1 3.31 5.42z" class="cls-26"/>
                                    </g>
                                    <g id="Grupo_68" transform="translate(18.847 41.796)">
                                        <circle id="Elipse_4" cx="12.14" cy="12.14" r="12.14" class="cls-27" transform="translate(7.09 9.19)"/>
                                        <g id="Grupo_67" transform="translate(10.148 10.148)">
                                            <g id="Grupo_66">
                                                <path id="Trazado_106" d="M5.82 17.26a6.895 6.895 0 1 1 9.34-2.8 6.9 6.9 0 0 1-9.34 2.8z" class="cls-25"/>
                                            </g>
                                            <path id="Trazado_107" d="M9.69 16.1a5.58 5.58 0 0 0 3.73-1.04 3.966 3.966 0 0 1-2.96 2.16 6.955 6.955 0 0 1-1.29.03 6.758 6.758 0 0 1-1.35-.19 4.1 4.1 0 0 1-2.66-2.38c.15.37 1.46.78 1.78.88a10.9 10.9 0 0 0 2.75.54z" class="cls-26"/>
                                        </g>
                                    </g>
                                    <g id="Grupo_71" transform="translate(90.054 50.704)">
                                        <circle id="Elipse_5" cx="12.14" cy="12.14" r="12.14" class="cls-27" transform="translate(7.09 9.19)"/>
                                        <g id="Grupo_70" transform="translate(10.148 10.148)">
                                            <g id="Grupo_69">
                                                <path id="Trazado_108" d="M5.82 17.26a6.895 6.895 0 1 1 9.34-2.8 6.9 6.9 0 0 1-9.34 2.8z" class="cls-25"/>
                                            </g>
                                            <path id="Trazado_109" d="M9.69 16.1a5.588 5.588 0 0 0 3.73-1.05 3.966 3.966 0 0 1-2.96 2.16 6.955 6.955 0 0 1-1.29.03 6.758 6.758 0 0 1-1.35-.19 4.1 4.1 0 0 1-2.66-2.38c.15.37 1.46.78 1.78.89a10.9 10.9 0 0 0 2.75.54z" class="cls-26"/>
                                        </g>
                                    </g>
                                </g>
                                <path id="Rectángulo_387" d="M70.95 39.08l3.74.47a1.416 1.416 0 0 1 1.23 1.58 1.416 1.416 0 0 1-1.58 1.23l-3.74-.47a1.416 1.416 0 0 1-1.23-1.58 1.4 1.4 0 0 1 1.58-1.23z" class="cls-26"/>
                            </g>
                            <g id="Grupo_74" transform="translate(90.104 66.201)">
                                <path id="Trazado_110" d="M2.75 13.11l-.56-8.42 3.59-.4 1.66 5.68 1.61-.98-.4 7.26-3.67.92z" class="cls-8"/>
                                <path id="Trazado_111" d="M52.7 60.65L21.54 49.8 9.61 13.85l-7.2 2.19L7.09 61.6l35.13 21.84z" class="cls-22"/>
                            </g>
                        </g>
                        <g id="Grupo_87" transform="translate(333.948 75.521)">
                            <g id="Grupo_78" transform="translate(40.56)">
                                <path id="Trazado_114" d="M20.27 52.71l7.9-.34a38.97 38.97 0 0 0-.08-6.3c.02.25 4.24-1.97 4.61-2.47 1.07-1.45 1.2-3.89 1.65-5.61.95-3.68 1.84-7.82-.1-11.08-2.01-3.38-6.37-4.54-10.3-4.64-4.94-.13-10.45 1.31-12.99 5.55-2.29 3.83.6 9.47 1.43 13.52.41 1.99 1.03 4.27 2.88 5.11.98.45 2.18.4 3.06 1.03 1.55 1.1 1.2 3.47 1.94 5.23z" class="cls-8"/>
                                <path id="Trazado_115" d="M3.18 20.49c-.29-2.73-.59-5.46-.88-8.19a7.2 7.2 0 0 1 .11-3.03 5.3 5.3 0 0 1 3.81-3.05c1.64-.44 3.36-.46 5.02-.82 1.77-.39 3.49-1.18 5.29-1.1 3.44.15 6.07 3.34 9.47 3.88 4.71.75 9.03-1.4 11.87 4.13.52 1.02.67 2.19 1.13 3.23a23.285 23.285 0 0 0 2.52 3.63c3.72 5.32 2.52 13.4-1.99 17.92-2.19 2.19-3.08 4.17-6.09 4.87 1.38-2.8-.44-13.97-4.22-15.23-1-.33-4 .89-5.11 1.05a29.247 29.247 0 0 0-7.15 1.71 35.419 35.419 0 0 1-10.86 2.7 1.374 1.374 0 0 1-1.75-.83 1.436 1.436 0 0 1-.07-.65z" class="cls-10"/>
                            </g>
                            <g id="Grupo_86" transform="translate(0 45.261)">
                                <path id="Trazado_116" d="M41.75 17.09S17.62 47.88 5.55 55.36v.01a3.033 3.033 0 0 0-1.85 1.28 7 7 0 0 0-.98 2.68 27.677 27.677 0 0 0-.53 4.97 8.926 8.926 0 0 0 .67 4.05 3.876 3.876 0 0 0 3.19 2.32c1.86.05 2.67-1.72 3.01-3.98 6.42-4.39 23.85-16.45 25.21-19 1.66-3.13 10.4-30.59 10.4-30.59z" class="cls-4"/>
                                <g id="Grupo_79" transform="translate(47.366 66.865)">
                                    <path id="Trazado_117" d="M55.31 141.93l1.06 4.45-7.84 6.57-5.51-3.39 3.39-5.51 7.84-6.57z" class="cls-10"/>
                                    <path id="Trazado_118" d="M37.32 4.29l3.22 13.51-4.08 62.85 18.98 59.74-8.41 3.87L9.01 75.29 4.49 53.26 2.19 6.68z" class="cls-3"/>
                                </g>
                                <g id="Grupo_80" transform="translate(29.143 66.967)">
                                    <path id="Trazado_119" d="M2.87 9.55l-.68 58.38 11 75.27h8.46l5.34-69.45L38.57 4.29z" class="cls-3"/>
                                    <path id="Trazado_120" d="M21.6 142.19v4.57l-9.15 4.57-4.57-4.57 4.57-4.57z" class="cls-10"/>
                                </g>
                                <path id="Trazado_121" d="M94.75 87.68c.12 5.33-.05 12.5-2.1 12.77a1.907 1.907 0 0 1-1.09-.32c-3.54-1.93-6.04-4.65-9.53-6.52a40.06 40.06 0 0 0-11.94-3.72 114.4 114.4 0 0 0-18.65-1.92q-7.38 0-14.74.74c-4.07.34-7.86 1.55-12 1.26a26.665 26.665 0 0 1-12.07-3.83.73.73 0 0 1-.33-.32.718.718 0 0 1 .06-.5c.87-2.38 1.49-4.73 3.07-6.7a43.112 43.112 0 0 0 4.28-7.5 120.09 120.09 0 0 0 7-16.24c2.8-7.55 6-14.92 8.71-22.5 1.88-5.25 3.59-10.6 6.13-15.58 1.99-3.9 5.55-9.6 9.83-11.32a13.094 13.094 0 0 1 4.61-.68l14.2-.41a11.6 11.6 0 0 1 5.09.62c2.36 1.07 3.69 3.54 4.85 5.85a113.448 113.448 0 0 1 10.42 33.03c.97 6.01 1.87 12.04 2.58 18.08.78 6.75 1.32 13.52 1.43 20.31.01.76.13 2.87.19 5.4z" class="cls-4"/>
                                <path id="Trazado_122" d="M63.17 30.57a38.6 38.6 0 0 0 .59 8.03q3.48 24.315 6.97 48.62l-38.12-.33 1.38-18.22a87.349 87.349 0 0 1 1.41-11.62c1.33-6.16 3.98-11.96 6.63-17.71L56.67 7.49a3.279 3.279 0 0 1 3.13-2.35 37.544 37.544 0 0 1 11.39-.63c.91 3.32-2.45 9.1-3.7 12.19-1.83 4.5-3.99 8.97-4.32 13.87z" class="cls-12"/>
                            </g>
                        </g>
                        <g id="Grupo_101" transform="translate(195.665 6.566)">
                            <g id="Grupo_88" transform="translate(90.085 124.647)">
                                <path id="Trazado_127" d="M70.9 11.46l6.38-4.36-1.74-2.81-5.03 2.02-.21-1.71-5 4.39 1.42 3.16z" class="cls-8"/>
                                <path id="Trazado_128" d="M66.49 6.94l2.49 6.42c.34 1.05-23.83 14.7-25.98 15.68-4.74 2.16-13.33 7.24-13.33 7.24-6.59.08-19-3.29-23.14-5.08-1.67-.72-2.86-4.42-3.87-5.89-1.28-1.86.35-5.15 1.45-6.67a15.647 15.647 0 0 1 9.5-6.09 8.918 8.918 0 0 1 4.11.02c1.37.38 3.13-5.94 4.3-5.12 2.07 1.46 3.22 11.09 5.68 11.93 3.1 1.06 38.06-13.95 38.79-12.44z" class="cls-3"/>
                            </g>
                            <path id="Trazado_129" d="M106.87 102.14l-.43.02c-6.78.33-14.99 9.23-19.75 14.48-12.28 13.56-20.85 29.1-27.27 46.47-3.46 9.36-6.51 18.86-9.37 28.42-.79 2.64-6.34 26.8-7.68 26.97 13.8-1.76 27.69-3.14 41.44-2.19s27.41 4.32 39.2 11.57c6.03-31 10.49-63.1 11.96-94.52.17-3.76.75-7.63.39-11.37-.41-4.3-2.53-6.24-4.93-9.5a21.8 21.8 0 0 0-2.66-3.17c-5.32-4.86-13.8-7.41-20.9-7.18z" class="cls-3"/>
                            <g id="Grupo_90" transform="translate(56.53 192.792)">
                                <g id="Grupo_89">
                                    <path id="Trazado_130" d="M2.19 14.67l14.36 58.29.32 42.96 6.97 1.51 2.72-39.96L33.4 4.29z" class="cls-8"/>
                                </g>
                                <path id="Trazado_131" d="M23.93 118.64l1.13 4.36-.99 8.55-5.65.01-2.12-12.36.66-2.07z" class="cls-10"/>
                            </g>
                            <g id="Grupo_91" transform="translate(82.531 194.399)">
                                <path id="Trazado_132" d="M31.02 6.62l1.27 50.37-6.72 71.14-6.88.5-2.47-65.21L2.19 4.29z" class="cls-8"/>
                                <path id="Trazado_133" d="M25.35 126.94l9.27 4.92-.74 4.33-16.38-2.01.79-6.23z" class="cls-10"/>
                            </g>
                            <path id="Trazado_134" d="M115.57 207.52l4.67 58.19-4.75 39.91-18.65-1.06-3.32-45.37-8.06-49.47 1.25-7.7 26.87.39z" class="cls-10"/>
                            <path id="Trazado_135" d="M87.3 261.48l-2.19 41.74-16.21-.83.33-39.59-10.22-49.71 2.33-13.9 27.26 1.7z" class="cls-10"/>
                            <path id="Trazado_136" d="M118.95 212.32c-16.63-2.87-43.58-9.82-60.21-12.69 8.7-28.9 22.56-60.99 38.71-86.38 2.93-4.6 6.59-9.41 11.83-10.5 5.62-1.17 15.46 2.53 16.55 8.81 1.6 9.19-1.72 21.87-2.74 31.16-2.3 21.04-.11 48.83-4.14 69.6z" class="cls-12"/>
                            <g id="Grupo_94" transform="translate(99.428 63.427)">
                                <path id="Trazado_137" d="M16.64 19.06c6.26-10.88 20.11-3.82 21.01 7.07.59 7.17-6.38 15.07-13.59 15.62a64.15 64.15 0 0 1-.66 5.15l-5.46-1.49c-.56-.15-1.21-.38-1.39-.94a1.686 1.686 0 0 1 .09-1.04l.99-3.44c-.12-.09-.24-.17-.36-.27-3-2.29-4.36-6.27-4.19-10.04a23.619 23.619 0 0 1 3.56-10.62z" class="cls-8"/>
                                <g id="Grupo_93">
                                    <g id="Grupo_92">
                                        <path id="Trazado_138" d="M17.04 22.74c-3.02 2.9-3.3 7.54-3.5 11.52-.18 3.54-.7 5.64-4.45 4.65-2.12-.56-5.89-1.51-6.79-3.83-.68-1.75 1.81-4.76 3.12-5.78 1.01-.78 2.51-.65 3.5-1.46a4.083 4.083 0 0 0 .93-1.25 21.084 21.084 0 0 0 2.18-6.02 22.125 22.125 0 0 1 .99-4.24c.82-1.94 3.27-3.42 4.86-4.76 2.96-2.5 9.68-4.41 12.11.06a6.254 6.254 0 0 1 .47 3.39 5.144 5.144 0 0 1-.43 2.01c-1.26 2.45-3.7 1.69-5.85 2.05a13.739 13.739 0 0 0-7.14 3.66z" class="cls-10"/>
                                        <path id="Trazado_139" d="M34.45 32.64c-.77 1.8-2.69 3.24-2.5 5.19a8.544 8.544 0 0 0 .93 2.43 6.914 6.914 0 0 1-.83 6.77l10.59 5.06a3.549 3.549 0 0 0 1.68.48c1.26-.08 2.02-1.39 2.54-2.54 1.03-2.26 2.09-4.7 1.63-7.14-.21-1.13-.74-2.18-.96-3.32-1.01-5.45 5.52-10.64 3.52-15.8-.89-2.3-3.23-3.67-4.81-5.57-2.76-3.31-3.15-8.18-6.11-11.31-5.6-5.9-16.58-1.07-15.74 7.13.7 6.71 13.16 11.37 10.06 18.62z" class="cls-10"/>
                                    </g>
                                </g>
                            </g>
                            <path id="Trazado_140" d="M105.97 103.86s-28.76 69.36-22.41 87.05 9.31 24.55 9.31 24.55l-44.04 1.84c-.01-.01 28.1-101.33 57.14-113.44z" class="cls-3"/>
                            <g id="Grupo_100">
                                <g id="Grupo_98">
                                    <path id="Rectángulo_389" d="M0 0h103.64v138.3H0z" class="cls-10" transform="rotate(-6.355 379.415 48.03)"/>
                                    <path id="Trazado_141" d="M19.35 172.98l1.54-.17 91.28-7.31L95.31 35.77l-4.09 1.68z" class="cls-28"/>
                                    <path id="Rectángulo_390" d="M0 0h93.19v127.96H0z" class="cls-12" transform="rotate(-6.355 416.48 -1.236)"/>
                                    <g id="Grupo_96" transform="translate(36.259)">
                                        <g id="Grupo_95">
                                            <path id="Trazado_142" d="M23.27 27.51l-.62.07-.05-.42c-.44-3.96-4.49-6.77-9.04-6.26l-6 .67C3 22.08-.33 25.7.11 29.67l.05.42-.62.07c-4.55.51-7.89 4.13-7.44 8.1l.89 8.02 40.22-4.48-.89-8.01c-.45-3.98-4.5-6.78-9.05-6.28zm-6.55.9l-10.6 1.18a1.982 1.982 0 0 1-.44-3.94l10.6-1.18a1.982 1.982 0 0 1 .44 3.94z" class="cls-11"/>
                                        </g>
                                        <path id="Rectángulo_391" d="M0 0h40.47v3.8H0z" class="cls-29" transform="rotate(-6.355 379.09 88.216)"/>
                                    </g>
                                    <g id="Grupo_97" transform="translate(19.943 76.431)">
                                        <path id="Rectángulo_392" d="M0 0h70.03v1.88H0z" class="cls-30" transform="rotate(-6.355 133.226 7.387)"/>
                                        <path id="Rectángulo_393" d="M0 0h70.03v1.88H0z" class="cls-30" transform="rotate(-6.355 258.288 .417)"/>
                                        <path id="Rectángulo_394" d="M0 0h70.03v1.88H0z" class="cls-30" transform="rotate(-6.355 383.353 -6.463)"/>
                                        <path id="Rectángulo_395" d="M0 0h70.03v1.88H0z" class="cls-30" transform="rotate(-6.355 508.514 -13.446)"/>
                                        <path id="Rectángulo_397" d="M0 0h70.03v1.88H0z" class="cls-30" transform="rotate(-6.355 7.706 14.332)"/>
                                        <path id="Rectángulo_398" d="M0 0h24.73v1.88H0z" class="cls-30" transform="rotate(-6.355 -102.192 20.427)"/>
                                    </g>
                                    <path id="Rectángulo_396" d="M0 0h25.74v.66H0z" class="cls-30" transform="rotate(-6.355 1460.568 -168.42)"/>
                                    <path id="Trazado_143" d="M87.86 142.02a4.7 4.7 0 0 0-3.72.66 5.219 5.219 0 0 0-.56-.18 4.682 4.682 0 0 0-2.25 9.09 4.751 4.751 0 0 0 2.51-.07 4.621 4.621 0 0 0 1.23-.58 4.681 4.681 0 0 0 3.33-8.75 5.6 5.6 0 0 0-.54-.17zm-3.67 8.55a3.929 3.929 0 1 1-1.4-7.44 4.642 4.642 0 0 1 .65.11 4.141 4.141 0 0 0-.65.8 4.736 4.736 0 0 0 .2 5.34 4.6 4.6 0 0 0 1.26 1.15zm2.16-3.96a4.038 4.038 0 0 1-1.39 3.46 3.91 3.91 0 0 1-.72-6.52 4.059 4.059 0 0 1 2.11 3.06zm2.12 3.48a3.938 3.938 0 0 1-2.72.27 4.865 4.865 0 0 0 1.36-3.83 4.805 4.805 0 0 0-2.17-3.44 3.92 3.92 0 1 1 3.53 7z" class="cls-30"/>
                                </g>
                            </g>
                        </g>
                    </g>
                </g>
            </g>
            <g id="Grupo_108" data-name="Grupo 108">
                <path id="Trazado_146" d="M436.12 201.79l-44.67 14.27a5.2 5.2 0 0 1-6.53-3.37l-26.96-84.43a5.2 5.2 0 0 1 3.37-6.53L406 107.46a5.2 5.2 0 0 1 6.53 3.37l26.96 84.43a5.186 5.186 0 0 1-3.37 6.53z" class="cls-10" data-name="Trazado 146"/>
                <path id="Rectángulo_399" d="M0 0h47.53v74.78H0z" class="cls-31" data-name="Rectángulo 399" transform="rotate(-17.71 608.36 -1103.483)"/>
                <g id="Grupo_106" data-name="Grupo 106">
                    <path id="Trazado_147" d="M411.9 206.22a3.2 3.2 0 0 1-3.04-2.22 3.193 3.193 0 1 1 4.01 2.07 3.218 3.218 0 0 1-.97.15zm.01-5.63a2.437 2.437 0 1 0 2.32 1.7 2.441 2.441 0 0 0-2.32-1.7z" class="cls-32" data-name="Trazado 147"/>
                </g>
                <g id="Grupo_107" data-name="Grupo 107">
                    <path id="Trazado_148" d="M379.43 123.28a1.209 1.209 0 0 1-1.15-.84l-.02-.07a1.18 1.18 0 0 1 .08-.92 1.206 1.206 0 0 1 .71-.6l12-3.83a1.216 1.216 0 0 1 1.52.78l.02.07a1.22 1.22 0 0 1-.78 1.52l-12 3.83a1.255 1.255 0 0 1-.38.06zm11.98-5.82a.761.761 0 0 0-.21.03l-12 3.83a.7.7 0 0 0-.45.89l.02.07a.711.711 0 0 0 .89.46l12-3.83a.711.711 0 0 0 .46-.89l-.02-.07a.74.74 0 0 0-.69-.49z" class="cls-33" data-name="Trazado 148"/>
                </g>
                <path id="Trazado_149" d="M367.66 131.74l58.85 38.9-16.72-52.35z" class="cls-34" data-name="Trazado 149"/>
                <path id="Trazado_150" d="M409.25 126.73l-39.37 12.57a1.235 1.235 0 0 1-1.54-.79l-.79-2.46a1.235 1.235 0 0 1 .79-1.54l39.37-12.57a1.235 1.235 0 0 1 1.54.79l.79 2.46a1.231 1.231 0 0 1-.79 1.54z" class="cls-35" data-name="Trazado 150"/>
                <path id="Trazado_151" d="M402.53 147.36l-26.08 8.33a1.223 1.223 0 0 0-.79 1.54l.03.09a1.223 1.223 0 0 0 1.54.79l26.08-8.33a1.223 1.223 0 0 0 .79-1.54l-.03-.09a1.227 1.227 0 0 0-1.54-.79z" class="cls-35" data-name="Trazado 151"/>
                <path id="Trazado_145_1_" d="M413.67 142.83a1.509 1.509 0 0 0-.78-.9l-.12-.06a1.477 1.477 0 0 0-1.94.64l-1.51 2.8-.67-.33a1.483 1.483 0 0 0-1.33 2.65c.01.01.03.01.05.02l2 .92a1.473 1.473 0 0 0 1.91-.61l2.27-3.96a1.534 1.534 0 0 0 .12-1.17zm-.85.77l-2.27 3.96a.659.659 0 0 1-.84.27l-2-.92a.653.653 0 0 1 .56-1.18l.73.37a.752.752 0 0 0 1-.32l1.54-2.87a.643.643 0 0 1 .85-.28l.12.06a.651.651 0 0 1 .31.87c.01.01.01.02 0 .04z" class="cls-35"/>
                <path id="Trazado_152" d="M406.58 158.55l-26.08 8.33a1.223 1.223 0 0 0-.79 1.54l.03.09a1.223 1.223 0 0 0 1.54.79l26.08-8.33a1.223 1.223 0 0 0 .79-1.54l-.03-.09a1.227 1.227 0 0 0-1.54-.79z" class="cls-35" data-name="Trazado 152"/>
                <path id="Trazado_145_2_" d="M417.72 154.02a1.509 1.509 0 0 0-.78-.9l-.12-.06a1.477 1.477 0 0 0-1.94.64l-1.51 2.8-.67-.33a1.483 1.483 0 0 0-1.33 2.65c.01.01.03.01.05.02l2 .92a1.473 1.473 0 0 0 1.91-.61l2.27-3.96a1.529 1.529 0 0 0 .12-1.17zm-.85.77l-2.27 3.96a.659.659 0 0 1-.84.27l-2-.92a.653.653 0 0 1 .56-1.18l.73.37a.752.752 0 0 0 1-.32l1.54-2.87a.643.643 0 0 1 .85-.28l.12.06a.651.651 0 0 1 .31.87.03.03 0 0 1 0 .04z" class="cls-35"/>
                <path id="Trazado_153" d="M410.46 169.54l-26.08 8.33a1.223 1.223 0 0 0-.79 1.54l.03.09a1.223 1.223 0 0 0 1.54.79l26.08-8.33a1.223 1.223 0 0 0 .79-1.54l-.03-.09a1.239 1.239 0 0 0-1.54-.79z" class="cls-35" data-name="Trazado 153"/>
                <path id="Trazado_145_3_" d="M421.6 165.02a1.509 1.509 0 0 0-.78-.9l-.12-.06a1.477 1.477 0 0 0-1.94.64l-1.51 2.8-.67-.33a1.483 1.483 0 0 0-1.33 2.65c.01.01.03.01.05.02l2 .92a1.473 1.473 0 0 0 1.91-.61l2.27-3.96a1.45 1.45 0 0 0 .12-1.17zm-.85.77l-2.27 3.96a.659.659 0 0 1-.84.27l-2-.92a.653.653 0 0 1 .56-1.18l.73.37a.752.752 0 0 0 1-.32l1.54-2.87a.643.643 0 0 1 .85-.28l.12.06a.651.651 0 0 1 .31.87c.02.01.01.02 0 .04z" class="cls-35"/>
            </g>
            <g id="Grupo_77" transform="translate(417.202 170.526)">
                <path id="Trazado_112" d="M12.42.51a3.859 3.859 0 0 1 3.78 1.1 9.035 9.035 0 0 1 2 3.59 27.894 27.894 0 0 1 1.18 4.85 7.016 7.016 0 0 1-.02 2.85 2.849 2.849 0 0 1-1.83 2.05 4.283 4.283 0 0 1-1.95-.06 1.819 1.819 0 0 1-1.81-1.54C12.94 10.81 8.26 1.87 12.42.51z" class="cls-4"/>
                <g id="Grupo_76" transform="translate(0 1.219)">
                    <path id="Trazado_113" d="M15.97 1.6a4.542 4.542 0 0 0-.38-.38 3.825 3.825 0 0 0-1.73-.89s-1.86.06-1.3.41l1.18.73-3.98.95-2 2.65 1.32 4.22 3.75 2.6c2.28-.99 4.97-1.52 5.01-4.53a9.313 9.313 0 0 0-.47-2.62 7.964 7.964 0 0 0-1.4-3.14z" class="cls-8"/>
                </g>
            </g>
            <g id="Grupo_85" transform="translate(.974 54.165)">
                <path id="Trazado_126" d="M372.41 135.26a3.464 3.464 0 0 0 .42.34 3.853 3.853 0 0 0 1.81.71s1.85-.25 1.25-.54l-1.25-.61 3.86-1.34 1.72-2.84-1.74-4.06-4-2.2c-2.17 1.22-4.78 2.03-4.51 5.02a9.166 9.166 0 0 0 .74 2.56 7.642 7.642 0 0 0 1.7 2.96z" class="cls-8"/>
            </g>
        </g>
    </g>
</svg>
